%FSTAX23Y23*%
%MOIN*%
%SFA1B1*%

%IPPOS*%
%ADD14R,0.072080X0.046880*%
%ADD15R,0.072960X0.072960*%
%ADD16C,0.072960*%
%ADD17C,0.084770*%
%ADD18R,0.084770X0.084770*%
%ADD19C,0.168000*%
%ADD20C,0.070990*%
%ADD21R,0.055240X0.055240*%
%ADD22C,0.055240*%
%LNtherms-1*%
%LPD*%
G54D14*
X01165Y00735D03*
Y0063D03*
X01965Y00735D03*
Y0063D03*
X02165Y00735D03*
Y0063D03*
X02365Y00735D03*
Y0063D03*
X02565Y00739D03*
Y00635D03*
X02765Y00735D03*
Y0063D03*
X02965Y00735D03*
Y0063D03*
X01465Y00735D03*
Y0063D03*
X01663Y00735D03*
Y0063D03*
X00165Y00739D03*
Y00635D03*
X00365Y00739D03*
Y00635D03*
X00565Y00735D03*
Y0063D03*
X00765Y00735D03*
Y0063D03*
X00965Y00735D03*
Y0063D03*
X02965Y01855D03*
Y0175D03*
X02765Y01859D03*
Y01755D03*
X02565Y01859D03*
Y01755D03*
X02365Y01859D03*
Y01755D03*
X02165Y01859D03*
Y01755D03*
X01965Y01855D03*
Y0175D03*
X01465Y01859D03*
Y01755D03*
X01665Y01859D03*
Y01755D03*
X01165Y01855D03*
Y0175D03*
X00965Y01855D03*
Y0175D03*
X00765Y01855D03*
Y0175D03*
X00565Y01855D03*
Y0175D03*
X00365Y01859D03*
Y01755D03*
X00165Y01855D03*
Y0175D03*
G54D15*
X01965Y00415D03*
X00165D03*
X01965Y02065D03*
X00165D03*
G54D16*
X02165Y00415D03*
X02365D03*
X02565D03*
X02765D03*
X02965D03*
X00365D03*
X00565D03*
X00765D03*
X00965D03*
X01165D03*
X02165Y02065D03*
X02365D03*
X02565D03*
X02765D03*
X02965D03*
X00365D03*
X00565D03*
X00765D03*
X00965D03*
X01165D03*
G54D17*
X01663Y00397D03*
X01466Y02082D03*
G54D18*
X01466Y00397D03*
X01663Y02082D03*
G54D19*
X0014Y0234D03*
X0299D03*
Y0014D03*
X0014D03*
G54D20*
X00952Y01046D03*
G54D21*
X01056Y0109D03*
G54D22*
X01135Y0109D03*
X01213D03*
X01292D03*
X01371D03*
X0145D03*
X01528D03*
X01607D03*
X01686D03*
X01765D03*
X01843D03*
X01922D03*
X02001D03*
X02079D03*
X01056Y01345D03*
X01135D03*
X01213D03*
X01292D03*
X01371D03*
X0145D03*
X01528D03*
X01607D03*
X01686D03*
X01765D03*
X01843D03*
X01922D03*
X02001D03*
X02079D03*
M02*