%FSTAX23Y23*%
%MOIN*%
%SFA1B1*%

%IPPOS*%
%ADD10C,0.007870*%
%ADD11C,0.005000*%
%ADD27C,0.003940*%
%LNvolttap-1*%
%LPD*%
G54D10*
X02973Y01055D02*
X02965D01*
X02973*
G54D11*
X02943Y00717D02*
Y01138D01*
X01687Y00717D02*
X02943D01*
X01687D02*
Y01138D01*
X02943*
Y00717D02*
Y01138D01*
X01687Y00717D02*
X02943D01*
X01687D02*
Y01138D01*
G54D27*
X04057Y00271D02*
X04055Y0028D01*
X04048Y00287*
X0404Y00289*
X04031Y00287*
X04024Y0028*
X04022Y00271*
X04254D02*
X04252Y0028D01*
X04245Y00287*
X04236Y00289*
X04227Y00287*
X04221Y0028*
X04219Y00271*
X03599Y00274D02*
X03596Y00282D01*
X0359Y00289*
X03581Y00291*
X03572Y00289*
X03566Y00282*
X03563Y00274*
X03796D02*
X03793Y00282D01*
X03787Y00289*
X03778Y00291*
X03769Y00289*
X03763Y00282*
X0376Y00274*
X03139D02*
X03136Y00282D01*
X0313Y00289*
X03121Y00291*
X03112Y00289*
X03106Y00282*
X03103Y00274*
X03336D02*
X03333Y00282D01*
X03327Y00289*
X03318Y00291*
X03309Y00289*
X03303Y00282*
X033Y00274*
X02679D02*
X02676Y00282D01*
X0267Y00289*
X02661Y00291*
X02652Y00289*
X02646Y00282*
X02643Y00274*
X02876D02*
X02873Y00282D01*
X02867Y00289*
X02858Y00291*
X02849Y00289*
X02843Y00282*
X0284Y00274*
X02219D02*
X02216Y00282D01*
X0221Y00289*
X02201Y00291*
X02192Y00289*
X02186Y00282*
X02183Y00274*
X02416D02*
X02413Y00282D01*
X02407Y00289*
X02398Y00291*
X02389Y00289*
X02383Y00282*
X0238Y00274*
X01759D02*
X01756Y00282D01*
X0175Y00289*
X01741Y00291*
X01732Y00289*
X01726Y00282*
X01723Y00274*
X01956D02*
X01953Y00282D01*
X01947Y00289*
X01938Y00291*
X01929Y00289*
X01923Y00282*
X0192Y00274*
X01299D02*
X01296Y00282D01*
X0129Y00289*
X01281Y00291*
X01272Y00289*
X01266Y00282*
X01263Y00274*
X01496D02*
X01493Y00282D01*
X01487Y00289*
X01478Y00291*
X01469Y00289*
X01463Y00282*
X0146Y00274*
X00839D02*
X00836Y00282D01*
X0083Y00289*
X00821Y00291*
X00812Y00289*
X00806Y00282*
X00803Y00274*
X01036D02*
X01033Y00282D01*
X01027Y00289*
X01018Y00291*
X01009Y00289*
X01003Y00282*
X01Y00274*
X00379D02*
X00376Y00282D01*
X0037Y00289*
X00361Y00291*
X00352Y00289*
X00346Y00282*
X00343Y00274*
X00576D02*
X00573Y00282D01*
X00567Y00289*
X00558Y00291*
X00549Y00289*
X00543Y00282*
X0054Y00274*
X0032Y01585D02*
X00323Y01577D01*
X00329Y0157*
X00338Y01568*
X00347Y0157*
X00353Y01577*
X00356Y01585*
X00123D02*
X00126Y01577D01*
X00132Y0157*
X00141Y01568*
X0015Y0157*
X00156Y01577*
X00159Y01585*
X00779Y01588D02*
X00781Y01579D01*
X00787Y01572*
X00796Y0157*
X00805Y01572*
X00812Y01579*
X00814Y01588*
X00582D02*
X00584Y01579D01*
X00591Y01572*
X006Y0157*
X00608Y01572*
X00615Y01579*
X00617Y01588*
X01239D02*
X01241Y01579D01*
X01247Y01572*
X01256Y0157*
X01265Y01572*
X01272Y01579*
X01274Y01588*
X01042D02*
X01044Y01579D01*
X01051Y01572*
X0106Y0157*
X01068Y01572*
X01075Y01579*
X01077Y01588*
X01699D02*
X01701Y01579D01*
X01707Y01572*
X01716Y0157*
X01725Y01572*
X01732Y01579*
X01734Y01588*
X01502D02*
X01504Y01579D01*
X01511Y01572*
X0152Y0157*
X01528Y01572*
X01535Y01579*
X01537Y01588*
X02159D02*
X02161Y01579D01*
X02167Y01572*
X02176Y0157*
X02185Y01572*
X02192Y01579*
X02194Y01588*
X01962D02*
X01964Y01579D01*
X01971Y01572*
X0198Y0157*
X01988Y01572*
X01995Y01579*
X01997Y01588*
X02619D02*
X02621Y01579D01*
X02627Y01572*
X02636Y0157*
X02645Y01572*
X02652Y01579*
X02654Y01588*
X02422D02*
X02424Y01579D01*
X02431Y01572*
X0244Y0157*
X02448Y01572*
X02455Y01579*
X02457Y01588*
X03079D02*
X03081Y01579D01*
X03087Y01572*
X03096Y0157*
X03105Y01572*
X03112Y01579*
X03114Y01588*
X02882D02*
X02884Y01579D01*
X02891Y01572*
X029Y0157*
X02908Y01572*
X02915Y01579*
X02917Y01588*
X03539D02*
X03541Y01579D01*
X03547Y01572*
X03556Y0157*
X03565Y01572*
X03572Y01579*
X03574Y01588*
X03342D02*
X03344Y01579D01*
X03351Y01572*
X0336Y0157*
X03368Y01572*
X03375Y01579*
X03377Y01588*
X04Y01585D02*
X04003Y01577D01*
X04009Y0157*
X04018Y01568*
X04027Y0157*
X04033Y01577*
X04036Y01585*
X03803D02*
X03806Y01577D01*
X03812Y0157*
X03821Y01568*
X0383Y0157*
X03836Y01577*
X03839Y01585*
X04459Y01588D02*
X04461Y01579D01*
X04467Y01572*
X04476Y0157*
X04485Y01572*
X04492Y01579*
X04494Y01588*
X04262D02*
X04264Y01579D01*
X04271Y01572*
X0428Y0157*
X04288Y01572*
X04295Y01579*
X04297Y01588*
X04014Y0013D02*
X04022Y00271D01*
X04057D02*
X04065Y0013D01*
X04254Y00271D02*
X04262Y0013D01*
X04211D02*
X04218Y00271D01*
X03941Y0013D02*
X04335D01*
X03917Y00194D02*
Y00227D01*
X03941Y00224*
X03917Y00194D02*
X03941Y00197D01*
Y0013D02*
Y00197D01*
Y00425D02*
X04335D01*
X03941Y00224D02*
Y00425D01*
X04358Y00352D02*
Y00389D01*
X04335Y00387D02*
X04358Y00389D01*
X04335Y00354D02*
X04358Y00352D01*
X04335Y00387D02*
Y00425D01*
Y0013D02*
Y00354D01*
X03555Y00132D02*
X03563Y00274D01*
X03599D02*
X03607Y00132D01*
X03796Y00274D02*
X03804Y00132D01*
X03752D02*
X0376Y00274D01*
X03483Y00132D02*
X03876D01*
X03459Y00196D02*
Y00229D01*
X03483Y00226*
X03459Y00196D02*
X03483Y00199D01*
Y00132D02*
Y00199D01*
Y00427D02*
X03876D01*
X03483Y00226D02*
Y00427D01*
X039Y00354D02*
Y00392D01*
X03876Y0039D02*
X039Y00392D01*
X03876Y00356D02*
X039Y00354D01*
X03876Y0039D02*
Y00427D01*
Y00132D02*
Y00356D01*
X03095Y00132D02*
X03103Y00274D01*
X03139D02*
X03147Y00132D01*
X03336Y00274D02*
X03344Y00132D01*
X03292D02*
X033Y00274D01*
X03023Y00132D02*
X03416D01*
X02999Y00196D02*
Y00229D01*
X03023Y00226*
X02999Y00196D02*
X03023Y00199D01*
Y00132D02*
Y00199D01*
Y00427D02*
X03416D01*
X03023Y00226D02*
Y00427D01*
X0344Y00354D02*
Y00392D01*
X03416Y0039D02*
X0344Y00392D01*
X03416Y00356D02*
X0344Y00354D01*
X03416Y0039D02*
Y00427D01*
Y00132D02*
Y00356D01*
X02635Y00132D02*
X02643Y00274D01*
X02679D02*
X02687Y00132D01*
X02876Y00274D02*
X02884Y00132D01*
X02832D02*
X0284Y00274D01*
X02563Y00132D02*
X02956D01*
X02539Y00196D02*
Y00229D01*
X02563Y00226*
X02539Y00196D02*
X02563Y00199D01*
Y00132D02*
Y00199D01*
Y00427D02*
X02956D01*
X02563Y00226D02*
Y00427D01*
X0298Y00354D02*
Y00392D01*
X02956Y0039D02*
X0298Y00392D01*
X02956Y00356D02*
X0298Y00354D01*
X02956Y0039D02*
Y00427D01*
Y00132D02*
Y00356D01*
X02175Y00132D02*
X02183Y00274D01*
X02219D02*
X02227Y00132D01*
X02416Y00274D02*
X02424Y00132D01*
X02372D02*
X0238Y00274D01*
X02103Y00132D02*
X02496D01*
X02079Y00196D02*
Y00229D01*
X02103Y00226*
X02079Y00196D02*
X02103Y00199D01*
Y00132D02*
Y00199D01*
Y00427D02*
X02496D01*
X02103Y00226D02*
Y00427D01*
X0252Y00354D02*
Y00392D01*
X02496Y0039D02*
X0252Y00392D01*
X02496Y00356D02*
X0252Y00354D01*
X02496Y0039D02*
Y00427D01*
Y00132D02*
Y00356D01*
X01715Y00132D02*
X01723Y00274D01*
X01759D02*
X01767Y00132D01*
X01956Y00274D02*
X01964Y00132D01*
X01912D02*
X0192Y00274D01*
X01643Y00132D02*
X02036D01*
X01619Y00196D02*
Y00229D01*
X01643Y00226*
X01619Y00196D02*
X01643Y00199D01*
Y00132D02*
Y00199D01*
Y00427D02*
X02036D01*
X01643Y00226D02*
Y00427D01*
X0206Y00354D02*
Y00392D01*
X02036Y0039D02*
X0206Y00392D01*
X02036Y00356D02*
X0206Y00354D01*
X02036Y0039D02*
Y00427D01*
Y00132D02*
Y00356D01*
X01255Y00132D02*
X01263Y00274D01*
X01299D02*
X01307Y00132D01*
X01496Y00274D02*
X01504Y00132D01*
X01452D02*
X0146Y00274D01*
X01183Y00132D02*
X01576D01*
X01159Y00196D02*
Y00229D01*
X01183Y00226*
X01159Y00196D02*
X01183Y00199D01*
Y00132D02*
Y00199D01*
Y00427D02*
X01576D01*
X01183Y00226D02*
Y00427D01*
X016Y00354D02*
Y00392D01*
X01576Y0039D02*
X016Y00392D01*
X01576Y00356D02*
X016Y00354D01*
X01576Y0039D02*
Y00427D01*
Y00132D02*
Y00356D01*
X00795Y00132D02*
X00803Y00274D01*
X00839D02*
X00847Y00132D01*
X01036Y00274D02*
X01044Y00132D01*
X00992D02*
X01Y00274D01*
X00723Y00132D02*
X01116D01*
X00699Y00196D02*
Y00229D01*
X00723Y00226*
X00699Y00196D02*
X00723Y00199D01*
Y00132D02*
Y00199D01*
Y00427D02*
X01116D01*
X00723Y00226D02*
Y00427D01*
X0114Y00354D02*
Y00392D01*
X01116Y0039D02*
X0114Y00392D01*
X01116Y00356D02*
X0114Y00354D01*
X01116Y0039D02*
Y00427D01*
Y00132D02*
Y00356D01*
X00335Y00132D02*
X00343Y00274D01*
X00379D02*
X00387Y00132D01*
X00576Y00274D02*
X00584Y00132D01*
X00532D02*
X0054Y00274D01*
X00263Y00132D02*
X00656D01*
X00239Y00196D02*
Y00229D01*
X00263Y00226*
X00239Y00196D02*
X00263Y00199D01*
Y00132D02*
Y00199D01*
Y00427D02*
X00656D01*
X00263Y00226D02*
Y00427D01*
X0068Y00354D02*
Y00392D01*
X00656Y0039D02*
X0068Y00392D01*
X00656Y00356D02*
X0068Y00354D01*
X00656Y0039D02*
Y00427D01*
Y00132D02*
Y00356D01*
X00356Y01585D02*
X00364Y01727D01*
X00312D02*
X0032Y01585D01*
X00115Y01727D02*
X00123Y01585D01*
X00159D02*
X00167Y01727D01*
X00043D02*
X00436D01*
X0046Y0163D02*
Y01663D01*
X00436Y01633D02*
X0046Y0163D01*
X00436Y0166D02*
X0046Y01663D01*
X00436Y0166D02*
Y01727D01*
X00043Y01432D02*
X00436D01*
Y01633*
X00019Y01467D02*
Y01505D01*
Y01467D02*
X00043Y01469D01*
X00019Y01505D02*
X00043Y01503D01*
Y01432D02*
Y01469D01*
Y01503D02*
Y01727D01*
X00814Y01588D02*
X00822Y01729D01*
X00771D02*
X00778Y01588D01*
X00574Y01729D02*
X00582Y01588D01*
X00617D02*
X00625Y01729D01*
X00501D02*
X00895D01*
X00918Y01632D02*
Y01665D01*
X00895Y01635D02*
X00918Y01632D01*
X00895Y01662D02*
X00918Y01665D01*
X00895Y01662D02*
Y01729D01*
X00501Y01434D02*
X00895D01*
Y01635*
X00477Y0147D02*
Y01507D01*
Y0147D02*
X00501Y01472D01*
X00477Y01507D02*
X00501Y01505D01*
Y01434D02*
Y01472D01*
Y01505D02*
Y01729D01*
X01274Y01588D02*
X01282Y01729D01*
X01231D02*
X01238Y01588D01*
X01034Y01729D02*
X01042Y01588D01*
X01077D02*
X01085Y01729D01*
X00961D02*
X01355D01*
X01378Y01632D02*
Y01665D01*
X01355Y01635D02*
X01378Y01632D01*
X01355Y01662D02*
X01378Y01665D01*
X01355Y01662D02*
Y01729D01*
X00961Y01434D02*
X01355D01*
Y01635*
X00937Y0147D02*
Y01507D01*
Y0147D02*
X00961Y01472D01*
X00937Y01507D02*
X00961Y01505D01*
Y01434D02*
Y01472D01*
Y01505D02*
Y01729D01*
X01734Y01588D02*
X01742Y01729D01*
X01691D02*
X01698Y01588D01*
X01494Y01729D02*
X01502Y01588D01*
X01537D02*
X01545Y01729D01*
X01421D02*
X01815D01*
X01838Y01632D02*
Y01665D01*
X01815Y01635D02*
X01838Y01632D01*
X01815Y01662D02*
X01838Y01665D01*
X01815Y01662D02*
Y01729D01*
X01421Y01434D02*
X01815D01*
Y01635*
X01397Y0147D02*
Y01507D01*
Y0147D02*
X01421Y01472D01*
X01397Y01507D02*
X01421Y01505D01*
Y01434D02*
Y01472D01*
Y01505D02*
Y01729D01*
X02194Y01588D02*
X02202Y01729D01*
X02151D02*
X02158Y01588D01*
X01954Y01729D02*
X01962Y01588D01*
X01997D02*
X02005Y01729D01*
X01881D02*
X02275D01*
X02298Y01632D02*
Y01665D01*
X02275Y01635D02*
X02298Y01632D01*
X02275Y01662D02*
X02298Y01665D01*
X02275Y01662D02*
Y01729D01*
X01881Y01434D02*
X02275D01*
Y01635*
X01857Y0147D02*
Y01507D01*
Y0147D02*
X01881Y01472D01*
X01857Y01507D02*
X01881Y01505D01*
Y01434D02*
Y01472D01*
Y01505D02*
Y01729D01*
X02654Y01588D02*
X02662Y01729D01*
X02611D02*
X02618Y01588D01*
X02414Y01729D02*
X02422Y01588D01*
X02457D02*
X02465Y01729D01*
X02341D02*
X02735D01*
X02758Y01632D02*
Y01665D01*
X02735Y01635D02*
X02758Y01632D01*
X02735Y01662D02*
X02758Y01665D01*
X02735Y01662D02*
Y01729D01*
X02341Y01434D02*
X02735D01*
Y01635*
X02317Y0147D02*
Y01507D01*
Y0147D02*
X02341Y01472D01*
X02317Y01507D02*
X02341Y01505D01*
Y01434D02*
Y01472D01*
Y01505D02*
Y01729D01*
X03114Y01588D02*
X03122Y01729D01*
X03071D02*
X03078Y01588D01*
X02874Y01729D02*
X02882Y01588D01*
X02917D02*
X02925Y01729D01*
X02801D02*
X03195D01*
X03218Y01632D02*
Y01665D01*
X03195Y01635D02*
X03218Y01632D01*
X03195Y01662D02*
X03218Y01665D01*
X03195Y01662D02*
Y01729D01*
X02801Y01434D02*
X03195D01*
Y01635*
X02777Y0147D02*
Y01507D01*
Y0147D02*
X02801Y01472D01*
X02777Y01507D02*
X02801Y01505D01*
Y01434D02*
Y01472D01*
Y01505D02*
Y01729D01*
X03574Y01588D02*
X03582Y01729D01*
X03531D02*
X03538Y01588D01*
X03334Y01729D02*
X03342Y01588D01*
X03377D02*
X03385Y01729D01*
X03261D02*
X03655D01*
X03678Y01632D02*
Y01665D01*
X03655Y01635D02*
X03678Y01632D01*
X03655Y01662D02*
X03678Y01665D01*
X03655Y01662D02*
Y01729D01*
X03261Y01434D02*
X03655D01*
Y01635*
X03237Y0147D02*
Y01507D01*
Y0147D02*
X03261Y01472D01*
X03237Y01507D02*
X03261Y01505D01*
Y01434D02*
Y01472D01*
Y01505D02*
Y01729D01*
X04036Y01585D02*
X04044Y01727D01*
X03992D02*
X04Y01585D01*
X03795Y01727D02*
X03803Y01585D01*
X03839D02*
X03847Y01727D01*
X03723D02*
X04116D01*
X0414Y0163D02*
Y01663D01*
X04116Y01633D02*
X0414Y0163D01*
X04116Y0166D02*
X0414Y01663D01*
X04116Y0166D02*
Y01727D01*
X03723Y01432D02*
X04116D01*
Y01633*
X03699Y01467D02*
Y01505D01*
Y01467D02*
X03723Y01469D01*
X03699Y01505D02*
X03723Y01503D01*
Y01432D02*
Y01469D01*
Y01503D02*
Y01727D01*
X04494Y01588D02*
X04502Y01729D01*
X04451D02*
X04458Y01588D01*
X04254Y01729D02*
X04262Y01588D01*
X04297D02*
X04305Y01729D01*
X04181D02*
X04575D01*
X04598Y01632D02*
Y01665D01*
X04575Y01635D02*
X04598Y01632D01*
X04575Y01662D02*
X04598Y01665D01*
X04575Y01662D02*
Y01729D01*
X04181Y01434D02*
X04575D01*
Y01635*
X04157Y0147D02*
Y01507D01*
Y0147D02*
X04181Y01472D01*
X04157Y01507D02*
X04181Y01505D01*
Y01434D02*
Y01472D01*
Y01505D02*
Y01729D01*
M02*