G04*
G04 #@! TF.GenerationSoftware,Altium Limited,Altium Designer,20.1.14 (287)*
G04*
G04 Layer_Color=32768*
%FSLAX25Y25*%
%MOIN*%
G70*
G04*
G04 #@! TF.SameCoordinates,2D993F0E-9169-457A-8C09-F8E6D10386A7*
G04*
G04*
G04 #@! TF.FilePolarity,Positive*
G04*
G01*
G75*
%ADD32C,0.00197*%
D32*
X185516Y24374D02*
Y58626D01*
X307484D01*
Y24374D02*
Y58626D01*
X185516Y24374D02*
X307484D01*
X156500Y39531D02*
Y43468D01*
X154532Y41500D02*
X158468D01*
X133665Y57051D02*
X179335D01*
Y25949D02*
Y57051D01*
X133665Y25949D02*
X179335D01*
X133665D02*
Y57051D01*
X5516Y24374D02*
Y58626D01*
X127484D01*
Y24374D02*
Y58626D01*
X5516Y24374D02*
X127484D01*
X185516Y189374D02*
Y223626D01*
X307484D01*
Y189374D02*
Y223626D01*
X185516Y189374D02*
X307484D01*
X156500Y204532D02*
Y208469D01*
X154532Y206500D02*
X158468D01*
X133665Y190949D02*
X179335D01*
X133665D02*
Y222051D01*
X179335D01*
Y190949D02*
Y222051D01*
X5516Y189374D02*
Y223626D01*
X127484D01*
Y189374D02*
Y223626D01*
X5516Y189374D02*
X127484D01*
X87524Y99748D02*
Y143842D01*
X222957D01*
Y99748D02*
Y143842D01*
X87524Y99748D02*
X222957D01*
M02*
