G04*
G04 #@! TF.GenerationSoftware,Altium Limited,Altium Designer,20.1.14 (287)*
G04*
G04 Layer_Color=16711935*
%FSLAX25Y25*%
%MOIN*%
G70*
G04*
G04 #@! TF.SameCoordinates,2D993F0E-9169-457A-8C09-F8E6D10386A7*
G04*
G04*
G04 #@! TF.FilePolarity,Positive*
G04*
G01*
G75*
%ADD10C,0.00787*%
%ADD11C,0.00500*%
%ADD31C,0.00394*%
D10*
X196894Y60004D02*
G03*
X196894Y60004I-394J0D01*
G01*
X16894D02*
G03*
X16894Y60004I-394J0D01*
G01*
X196894Y225004D02*
G03*
X196894Y225004I-394J0D01*
G01*
X16894D02*
G03*
X16894Y225004I-394J0D01*
G01*
X86343Y109000D02*
G03*
X86343Y109000I-394J0D01*
G01*
D11*
X186500Y25358D02*
Y57642D01*
X306500D01*
Y25358D02*
Y57642D01*
X186500Y25358D02*
X306500D01*
X6500D02*
Y57642D01*
X126500D01*
Y25358D02*
Y57642D01*
X6500Y25358D02*
X126500D01*
X186500Y190358D02*
Y222642D01*
X306500D01*
Y190358D02*
Y222642D01*
X186500Y190358D02*
X306500D01*
X6500D02*
Y222642D01*
X126500D01*
Y190358D02*
Y222642D01*
X6500Y190358D02*
X126500D01*
X88508Y100732D02*
Y142858D01*
X221972D01*
Y100732D02*
Y142858D01*
X88508Y100732D02*
X221972D01*
X88508D02*
Y142858D01*
X221972D01*
Y100732D02*
Y142858D01*
D31*
X148429Y40909D02*
G03*
X144886Y40909I-1772J0D01*
G01*
X168114Y40909D02*
G03*
X164571Y40909I-1772J0D01*
G01*
Y207091D02*
G03*
X168114Y207091I1772J0D01*
G01*
X144886Y207091D02*
G03*
X148429Y207091I1772J0D01*
G01*
X144098Y26736D02*
X144866Y40910D01*
X148449D02*
X149216Y26736D01*
X168134Y40910D02*
X168902Y26736D01*
X163784D02*
X164551Y40910D01*
X136816Y26736D02*
X176186Y26736D01*
X134453Y33134D02*
Y36480D01*
X136816Y36185D01*
X134453Y33134D02*
X136816Y33429D01*
Y26736D02*
Y33429D01*
Y56263D02*
X176186D01*
X136816Y36185D02*
Y56263D01*
X178548Y48980D02*
Y52720D01*
X176186Y52523D02*
X178548Y52720D01*
X176186Y49177D02*
X178548Y48980D01*
X176186Y52523D02*
Y56263D01*
Y26736D02*
Y49177D01*
X168134Y207090D02*
X168902Y221264D01*
X163784D02*
X164551Y207090D01*
X144098Y221264D02*
X144866Y207090D01*
X148449D02*
X149216Y221264D01*
X136814Y221264D02*
X176184Y221264D01*
X178547Y211520D02*
Y214866D01*
X176184Y211815D02*
X178547Y211520D01*
X176184Y214571D02*
X178547Y214866D01*
X176184Y214571D02*
Y221264D01*
X136814Y191737D02*
X176184D01*
Y211815D01*
X134452Y195280D02*
Y199020D01*
Y195280D02*
X136814Y195477D01*
X134452Y199020D02*
X136814Y198823D01*
Y191737D02*
Y195477D01*
Y198823D02*
Y221264D01*
M02*
