G04*
G04 #@! TF.GenerationSoftware,Altium Limited,Altium Designer,20.1.14 (287)*
G04*
G04 Layer_Physical_Order=1*
G04 Layer_Color=255*
%FSLAX25Y25*%
%MOIN*%
G70*
G04*
G04 #@! TF.SameCoordinates,2D993F0E-9169-457A-8C09-F8E6D10386A7*
G04*
G04*
G04 #@! TF.FilePolarity,Positive*
G04*
G01*
G75*
%ADD12C,0.01000*%
%ADD13R,0.07008X0.04488*%
%ADD23R,0.06496X0.06496*%
%ADD24C,0.06496*%
%ADD25C,0.07677*%
%ADD26R,0.07677X0.07677*%
%ADD27C,0.16000*%
%ADD28C,0.06299*%
%ADD29R,0.04724X0.04724*%
%ADD30C,0.04724*%
D12*
X216500Y73500D02*
X217000Y74000D01*
Y81000D01*
X202500Y83000D02*
X215000D01*
X217000Y81000D01*
X176500Y109000D02*
X202500Y83000D01*
X184374Y109000D02*
X204374Y89000D01*
X231000D01*
X236500Y83500D01*
Y73500D02*
Y83500D01*
X192248Y109000D02*
X206248Y95000D01*
X251000D01*
X256500Y89500D01*
Y73972D02*
Y89500D01*
X200122Y109000D02*
X208122Y101000D01*
X266000D01*
X276500Y90500D01*
Y73500D02*
Y90500D01*
X207996Y109000D02*
X276000D01*
X296500Y73500D02*
Y88500D01*
X276000Y109000D02*
X296500Y88500D01*
X168626Y109000D02*
X196500Y81126D01*
Y73500D02*
Y81126D01*
X166342Y73500D02*
Y103410D01*
X160752Y109000D02*
X166342Y103410D01*
X146500Y73500D02*
Y102622D01*
X152878Y109000D01*
X116500Y73500D02*
X117000Y74000D01*
Y81000D01*
X145000Y109000D01*
X145004D01*
X96500Y73500D02*
X97000Y74000D01*
Y77000D01*
X102000Y82000D01*
X110130D02*
X137130Y109000D01*
X102000Y82000D02*
X110130D01*
X76500Y73500D02*
Y80500D01*
X83000Y87000D01*
X107256D02*
X129256Y109000D01*
X83000Y87000D02*
X107256D01*
X56500Y73500D02*
Y80500D01*
X69000Y93000D01*
X105382D02*
X121382Y109000D01*
X69000Y93000D02*
X105382D01*
X36500Y73972D02*
Y85500D01*
X51000Y100000D01*
X104508D01*
X113508Y109000D01*
X98683D02*
X105634D01*
X98364Y109319D02*
X98683Y109000D01*
X35319Y109319D02*
X98364D01*
X16500Y90500D02*
X35319Y109319D01*
X16500Y73972D02*
Y90500D01*
X207531Y142000D02*
X260000D01*
X200122Y134591D02*
X207531Y142000D01*
X260000D02*
X276500Y158500D01*
Y175500D01*
X207996Y134591D02*
X277590D01*
X296500Y153500D02*
Y175028D01*
X277590Y134591D02*
X296500Y153500D01*
X256500Y162500D02*
Y175500D01*
X243000Y149000D02*
X256500Y162500D01*
X206658Y149000D02*
X243000D01*
X192248Y134591D02*
X206658Y149000D01*
X256000Y175000D02*
X256500Y175500D01*
X205784Y156000D02*
X222000D01*
X184374Y134591D02*
X205784Y156000D01*
X222000D02*
X236500Y170500D01*
Y175500D01*
X216500Y165500D02*
Y175500D01*
X213000Y162000D02*
X216500Y165500D01*
X204000Y162000D02*
X213000D01*
X176500Y134591D02*
X176591D01*
X204000Y162000D01*
X168626Y134591D02*
X196500Y162465D01*
Y175028D01*
X166500Y140339D02*
Y175500D01*
X160752Y134591D02*
X166500Y140339D01*
X146500Y140969D02*
Y175500D01*
Y140969D02*
X152878Y134591D01*
X116500Y163094D02*
X145004Y134591D01*
X116500Y163094D02*
Y175028D01*
X96500D02*
X97760D01*
X136417Y136370D01*
Y135303D02*
Y136370D01*
Y135303D02*
X137130Y134591D01*
X102847Y161000D02*
X129256Y134591D01*
X80000Y161000D02*
X102847D01*
X76500Y164500D02*
Y175028D01*
Y164500D02*
X80000Y161000D01*
X102972Y153000D02*
X121382Y134591D01*
X60000Y153000D02*
X102972D01*
X56500Y156500D02*
Y175028D01*
Y156500D02*
X60000Y153000D01*
X103098Y145000D02*
X113508Y134591D01*
X45000Y145000D02*
X103098D01*
X36500Y153500D02*
Y175500D01*
Y153500D02*
X45000Y145000D01*
X105224Y135000D02*
X105634Y134591D01*
X33000Y135000D02*
X105224D01*
X16500Y151500D02*
Y175028D01*
Y151500D02*
X33000Y135000D01*
X16500Y185500D02*
Y206500D01*
X36500Y185972D02*
Y206500D01*
X56500Y185500D02*
Y206500D01*
X76500Y185500D02*
Y206500D01*
X96500Y185500D02*
Y206500D01*
X116500Y185500D02*
Y206500D01*
X146658Y186130D02*
Y208272D01*
X146500Y185972D02*
X146658Y186130D01*
X166500Y185972D02*
Y208114D01*
X166342Y208272D02*
X166500Y208114D01*
X196500Y185500D02*
Y206500D01*
X216500Y185972D02*
Y206500D01*
X236500Y185972D02*
Y206500D01*
X256500Y185972D02*
Y206500D01*
X276500Y185972D02*
Y206500D01*
X296500Y185500D02*
Y206500D01*
Y41500D02*
Y63028D01*
X276500Y41500D02*
Y63028D01*
X256500Y41500D02*
Y63500D01*
X236500Y41500D02*
Y63028D01*
X216500Y41500D02*
Y63028D01*
X196500Y41500D02*
Y63028D01*
X166342Y39728D02*
Y63028D01*
X166342Y63028D02*
X166342Y63028D01*
X146500Y39886D02*
Y63028D01*
Y39886D02*
X146658Y39728D01*
X116500Y41500D02*
Y63028D01*
X96500Y41500D02*
Y63028D01*
X76500Y41500D02*
Y63028D01*
X56500Y41500D02*
Y63028D01*
X36500Y41500D02*
Y63500D01*
X16500Y41500D02*
Y63500D01*
D13*
X116500Y73500D02*
D03*
Y63028D02*
D03*
X196500Y73500D02*
D03*
Y63028D02*
D03*
X216500Y73500D02*
D03*
Y63028D02*
D03*
X236500Y73500D02*
D03*
Y63028D02*
D03*
X256500Y73972D02*
D03*
Y63500D02*
D03*
X276500Y73500D02*
D03*
Y63028D02*
D03*
X296500Y73500D02*
D03*
Y63028D02*
D03*
X146500Y73500D02*
D03*
Y63028D02*
D03*
X166342Y73500D02*
D03*
Y63028D02*
D03*
X16500Y73972D02*
D03*
Y63500D02*
D03*
X36500Y73972D02*
D03*
Y63500D02*
D03*
X56500Y73500D02*
D03*
Y63028D02*
D03*
X76500Y73500D02*
D03*
Y63028D02*
D03*
X96500Y73500D02*
D03*
Y63028D02*
D03*
X296500Y185500D02*
D03*
Y175028D02*
D03*
X276500Y185972D02*
D03*
Y175500D02*
D03*
X256500Y185972D02*
D03*
Y175500D02*
D03*
X236500Y185972D02*
D03*
Y175500D02*
D03*
X216500Y185972D02*
D03*
Y175500D02*
D03*
X196500Y185500D02*
D03*
Y175028D02*
D03*
X146500Y185972D02*
D03*
Y175500D02*
D03*
X166500Y185972D02*
D03*
Y175500D02*
D03*
X116500Y185500D02*
D03*
Y175028D02*
D03*
X96500Y185500D02*
D03*
Y175028D02*
D03*
X76500Y185500D02*
D03*
Y175028D02*
D03*
X56500Y185500D02*
D03*
Y175028D02*
D03*
X36500Y185972D02*
D03*
Y175500D02*
D03*
X16500Y185500D02*
D03*
Y175028D02*
D03*
D23*
X196500Y41500D02*
D03*
X16500D02*
D03*
X196500Y206500D02*
D03*
X16500D02*
D03*
D24*
X216500Y41500D02*
D03*
X236500D02*
D03*
X256500D02*
D03*
X276500D02*
D03*
X296500D02*
D03*
X36500D02*
D03*
X56500D02*
D03*
X76500D02*
D03*
X96500D02*
D03*
X116500D02*
D03*
X216500Y206500D02*
D03*
X236500D02*
D03*
X256500D02*
D03*
X276500D02*
D03*
X296500D02*
D03*
X36500D02*
D03*
X56500D02*
D03*
X76500D02*
D03*
X96500D02*
D03*
X116500D02*
D03*
D25*
X166342Y39728D02*
D03*
X146658Y208272D02*
D03*
D26*
Y39728D02*
D03*
X166342Y208272D02*
D03*
D27*
X14000Y234000D02*
D03*
X299000D02*
D03*
Y14000D02*
D03*
X14000D02*
D03*
D28*
X95201Y104669D02*
D03*
D29*
X105634Y109000D02*
D03*
D30*
X113508D02*
D03*
X121382D02*
D03*
X129256D02*
D03*
X137130D02*
D03*
X145004D02*
D03*
X152878D02*
D03*
X160752D02*
D03*
X168626D02*
D03*
X176500D02*
D03*
X184374D02*
D03*
X192248D02*
D03*
X200122D02*
D03*
X207996D02*
D03*
X105634Y134591D02*
D03*
X113508D02*
D03*
X121382D02*
D03*
X129256D02*
D03*
X137130D02*
D03*
X145004D02*
D03*
X152878D02*
D03*
X160752D02*
D03*
X168626D02*
D03*
X176500D02*
D03*
X184374D02*
D03*
X192248D02*
D03*
X200122D02*
D03*
X207996D02*
D03*
M02*
