G04*
G04 #@! TF.GenerationSoftware,Altium Limited,Altium Designer,20.1.14 (287)*
G04*
G04 Layer_Color=255*
%FSLAX25Y25*%
%MOIN*%
G70*
G04*
G04 #@! TF.SameCoordinates,2D993F0E-9169-457A-8C09-F8E6D10386A7*
G04*
G04*
G04 #@! TF.FilePolarity,Positive*
G04*
G01*
G75*
%ADD23R,0.06496X0.06496*%
%ADD24C,0.06496*%
%ADD25C,0.07677*%
%ADD26R,0.07677X0.07677*%
%ADD27C,0.16000*%
%ADD28C,0.06299*%
%ADD29R,0.04724X0.04724*%
%ADD30C,0.04724*%
D23*
X196500Y41500D02*
D03*
X16500D02*
D03*
X196500Y206500D02*
D03*
X16500D02*
D03*
D24*
X216500Y41500D02*
D03*
X236500D02*
D03*
X256500D02*
D03*
X276500D02*
D03*
X296500D02*
D03*
X36500D02*
D03*
X56500D02*
D03*
X76500D02*
D03*
X96500D02*
D03*
X116500D02*
D03*
X216500Y206500D02*
D03*
X236500D02*
D03*
X256500D02*
D03*
X276500D02*
D03*
X296500D02*
D03*
X36500D02*
D03*
X56500D02*
D03*
X76500D02*
D03*
X96500D02*
D03*
X116500D02*
D03*
D25*
X166342Y39728D02*
D03*
X146658Y208272D02*
D03*
D26*
Y39728D02*
D03*
X166342Y208272D02*
D03*
D27*
X14000Y234000D02*
D03*
X299000D02*
D03*
Y14000D02*
D03*
X14000D02*
D03*
D28*
X95201Y104669D02*
D03*
D29*
X105634Y109000D02*
D03*
D30*
X113508D02*
D03*
X121382D02*
D03*
X129256D02*
D03*
X137130D02*
D03*
X145004D02*
D03*
X152878D02*
D03*
X160752D02*
D03*
X168626D02*
D03*
X176500D02*
D03*
X184374D02*
D03*
X192248D02*
D03*
X200122D02*
D03*
X207996D02*
D03*
X105634Y134591D02*
D03*
X113508D02*
D03*
X121382D02*
D03*
X129256D02*
D03*
X137130D02*
D03*
X145004D02*
D03*
X152878D02*
D03*
X160752D02*
D03*
X168626D02*
D03*
X176500D02*
D03*
X184374D02*
D03*
X192248D02*
D03*
X200122D02*
D03*
X207996D02*
D03*
M02*
