%FSTAX23Y23*%
%MOIN*%
%SFA1B1*%

%IPPOS*%
%ADD28C,0.001970*%
%LNvolttap-1*%
%LPD*%
G54D28*
X02953Y00707D02*
Y01148D01*
X01677Y00707D02*
X02953D01*
X01677D02*
Y01148D01*
X02953*
X04138Y00258D02*
Y00297D01*
X04118Y00277D02*
X04158D01*
X0391Y00433D02*
X04366D01*
Y00122D02*
Y00433D01*
X0391Y00122D02*
X04366D01*
X0391D02*
Y00433D01*
X0368Y0026D02*
Y00299D01*
X0366Y0028D02*
X03699D01*
X03451Y00435D02*
X03908D01*
Y00124D02*
Y00435D01*
X03451Y00124D02*
X03908D01*
X03451D02*
Y00435D01*
X0322Y0026D02*
Y00299D01*
X032Y0028D02*
X03239D01*
X02991Y00435D02*
X03448D01*
Y00124D02*
Y00435D01*
X02991Y00124D02*
X03448D01*
X02991D02*
Y00435D01*
X0276Y0026D02*
Y00299D01*
X0274Y0028D02*
X02779D01*
X02531Y00435D02*
X02988D01*
Y00124D02*
Y00435D01*
X02531Y00124D02*
X02988D01*
X02531D02*
Y00435D01*
X023Y0026D02*
Y00299D01*
X0228Y0028D02*
X02319D01*
X02071Y00435D02*
X02528D01*
Y00124D02*
Y00435D01*
X02071Y00124D02*
X02528D01*
X02071D02*
Y00435D01*
X0184Y0026D02*
Y00299D01*
X0182Y0028D02*
X01859D01*
X01611Y00435D02*
X02068D01*
Y00124D02*
Y00435D01*
X01611Y00124D02*
X02068D01*
X01611D02*
Y00435D01*
X0138Y0026D02*
Y00299D01*
X0136Y0028D02*
X01399D01*
X01151Y00435D02*
X01608D01*
Y00124D02*
Y00435D01*
X01151Y00124D02*
X01608D01*
X01151D02*
Y00435D01*
X0092Y0026D02*
Y00299D01*
X009Y0028D02*
X00939D01*
X00691Y00435D02*
X01148D01*
Y00124D02*
Y00435D01*
X00691Y00124D02*
X01148D01*
X00691D02*
Y00435D01*
X0046Y0026D02*
Y00299D01*
X0044Y0028D02*
X00479D01*
X00231Y00435D02*
X00688D01*
Y00124D02*
Y00435D01*
X00231Y00124D02*
X00688D01*
X00231D02*
Y00435D01*
X0024Y0156D02*
Y01599D01*
X0022Y0158D02*
X00259D01*
X00011Y01424D02*
X00468D01*
X00011D02*
Y01735D01*
X00468*
Y01424D02*
Y01735D01*
X00698Y01562D02*
Y01601D01*
X00678Y01582D02*
X00718D01*
X0047Y01426D02*
X00926D01*
X0047D02*
Y01737D01*
X00926*
Y01426D02*
Y01737D01*
X01158Y01562D02*
Y01601D01*
X01138Y01582D02*
X01178D01*
X0093Y01426D02*
X01386D01*
X0093D02*
Y01737D01*
X01386*
Y01426D02*
Y01737D01*
X01618Y01562D02*
Y01601D01*
X01598Y01582D02*
X01638D01*
X0139Y01426D02*
X01846D01*
X0139D02*
Y01737D01*
X01846*
Y01426D02*
Y01737D01*
X02078Y01562D02*
Y01601D01*
X02058Y01582D02*
X02098D01*
X0185Y01426D02*
X02306D01*
X0185D02*
Y01737D01*
X02306*
Y01426D02*
Y01737D01*
X02538Y01562D02*
Y01601D01*
X02518Y01582D02*
X02558D01*
X0231Y01426D02*
X02766D01*
X0231D02*
Y01737D01*
X02766*
Y01426D02*
Y01737D01*
X02998Y01562D02*
Y01601D01*
X02978Y01582D02*
X03018D01*
X0277Y01426D02*
X03226D01*
X0277D02*
Y01737D01*
X03226*
Y01426D02*
Y01737D01*
X03458Y01562D02*
Y01601D01*
X03438Y01582D02*
X03478D01*
X0323Y01426D02*
X03686D01*
X0323D02*
Y01737D01*
X03686*
Y01426D02*
Y01737D01*
X0392Y0156D02*
Y01599D01*
X039Y0158D02*
X03939D01*
X03691Y01424D02*
X04148D01*
X03691D02*
Y01735D01*
X04148*
Y01424D02*
Y01735D01*
X04378Y01562D02*
Y01601D01*
X04358Y01582D02*
X04398D01*
X0415Y01426D02*
X04606D01*
X0415D02*
Y01737D01*
X04606*
Y01426D02*
Y01737D01*
M02*