%FSTAX23Y23*%
%MOIN*%
%SFA1B1*%

%IPPOS*%
%ADD21C,0.047240*%
%ADD22C,0.062990*%
%ADD23R,0.047240X0.047240*%
%ADD24C,0.076770*%
%ADD25R,0.076770X0.076770*%
%ADD26C,0.160000*%
%LNvolttap-1*%
%LPD*%
G54D21*
X02142Y008D03*
Y01055D03*
X023D03*
X02221D03*
X023Y008D03*
X02221D03*
X02693Y01055D03*
X02614D03*
X02536D03*
X02457D03*
X02378D03*
X02063D03*
X01985D03*
X01906D03*
X01827D03*
X02772Y008D03*
X02693D03*
X02614D03*
X02536D03*
X02457D03*
X02378D03*
X02063D03*
X01985D03*
X01906D03*
X01827D03*
G54D22*
X02876Y01099D03*
G54D23*
X02772Y01055D03*
G54D24*
X04236Y0026D03*
X03778Y00262D03*
X03318D03*
X02858D03*
X02398D03*
X01938D03*
X01478D03*
X01018D03*
X00558D03*
X00141Y01597D03*
X006Y016D03*
X0106D03*
X0152D03*
X0198D03*
X0244D03*
X029D03*
X0336D03*
X03821Y01597D03*
X0428Y016D03*
G54D25*
X0404Y0026D03*
X03581Y00262D03*
X03121D03*
X02661D03*
X02201D03*
X01741D03*
X01281D03*
X00821D03*
X00361D03*
X00338Y01597D03*
X00796Y016D03*
X01256D03*
X01716D03*
X02176D03*
X02636D03*
X03096D03*
X03556D03*
X04018Y01597D03*
X04476Y016D03*
G54D26*
X0012Y0184D03*
X045D03*
X0012Y0012D03*
X045D03*
M02*