M48
;Layer_Color=9474304
;FILE_FORMAT=2:5
INCH,TZ
;TYPE=PLATED
T1F00S00C0.03346
T2F00S00C0.04331
T3F00S00C0.05118
T4F00S00C0.14400
;TYPE=NON_PLATED
T5F00S00C0.06299
%
T01
X105634Y109000
X113508
X121382
X129256
X137130
X145004
X152878
X160752
X168626
X176500
X184374
X192248
X200122
X207996
Y134591
X200122
X192248
X184374
X176500
X168626
X160752
X152878
X145004
X137130
X129256
X121382
X113508
X105634
T02
X16500Y41500
X36500
X56500
X76500
X96500
X116500
X196500
X216500
X236500
X256500
X276500
X296500
Y206500
X276500
X256500
X236500
X216500
X196500
X116500
X96500
X76500
X56500
X36500
X16500
T03
X146658Y39728
X166342
Y208272
X146658
T04
X14000Y14000
X299000
X14000Y234000
X299000
T05
X95201Y104669
M30
