G04*
G04 #@! TF.GenerationSoftware,Altium Limited,Altium Designer,20.1.14 (287)*
G04*
G04 Layer_Color=8388736*
%FSLAX25Y25*%
%MOIN*%
G70*
G04*
G04 #@! TF.SameCoordinates,2D993F0E-9169-457A-8C09-F8E6D10386A7*
G04*
G04*
G04 #@! TF.FilePolarity,Negative*
G04*
G01*
G75*
%ADD14R,0.07208X0.04688*%
%ADD15R,0.07296X0.07296*%
%ADD16C,0.07296*%
%ADD17C,0.08477*%
%ADD18R,0.08477X0.08477*%
%ADD19C,0.16800*%
%ADD20C,0.07099*%
%ADD21R,0.05524X0.05524*%
%ADD22C,0.05524*%
D14*
X116500Y73500D02*
D03*
Y63028D02*
D03*
X196500Y73500D02*
D03*
Y63028D02*
D03*
X216500Y73500D02*
D03*
Y63028D02*
D03*
X236500Y73500D02*
D03*
Y63028D02*
D03*
X256500Y73972D02*
D03*
Y63500D02*
D03*
X276500Y73500D02*
D03*
Y63028D02*
D03*
X296500Y73500D02*
D03*
Y63028D02*
D03*
X146500Y73500D02*
D03*
Y63028D02*
D03*
X166342Y73500D02*
D03*
Y63028D02*
D03*
X16500Y73972D02*
D03*
Y63500D02*
D03*
X36500Y73972D02*
D03*
Y63500D02*
D03*
X56500Y73500D02*
D03*
Y63028D02*
D03*
X76500Y73500D02*
D03*
Y63028D02*
D03*
X96500Y73500D02*
D03*
Y63028D02*
D03*
X296500Y185500D02*
D03*
Y175028D02*
D03*
X276500Y185972D02*
D03*
Y175500D02*
D03*
X256500Y185972D02*
D03*
Y175500D02*
D03*
X236500Y185972D02*
D03*
Y175500D02*
D03*
X216500Y185972D02*
D03*
Y175500D02*
D03*
X196500Y185500D02*
D03*
Y175028D02*
D03*
X146500Y185972D02*
D03*
Y175500D02*
D03*
X166500Y185972D02*
D03*
Y175500D02*
D03*
X116500Y185500D02*
D03*
Y175028D02*
D03*
X96500Y185500D02*
D03*
Y175028D02*
D03*
X76500Y185500D02*
D03*
Y175028D02*
D03*
X56500Y185500D02*
D03*
Y175028D02*
D03*
X36500Y185972D02*
D03*
Y175500D02*
D03*
X16500Y185500D02*
D03*
Y175028D02*
D03*
D15*
X196500Y41500D02*
D03*
X16500D02*
D03*
X196500Y206500D02*
D03*
X16500D02*
D03*
D16*
X216500Y41500D02*
D03*
X236500D02*
D03*
X256500D02*
D03*
X276500D02*
D03*
X296500D02*
D03*
X36500D02*
D03*
X56500D02*
D03*
X76500D02*
D03*
X96500D02*
D03*
X116500D02*
D03*
X216500Y206500D02*
D03*
X236500D02*
D03*
X256500D02*
D03*
X276500D02*
D03*
X296500D02*
D03*
X36500D02*
D03*
X56500D02*
D03*
X76500D02*
D03*
X96500D02*
D03*
X116500D02*
D03*
D17*
X166342Y39728D02*
D03*
X146658Y208272D02*
D03*
D18*
Y39728D02*
D03*
X166342Y208272D02*
D03*
D19*
X14000Y234000D02*
D03*
X299000D02*
D03*
Y14000D02*
D03*
X14000D02*
D03*
D20*
X95201Y104669D02*
D03*
D21*
X105634Y109000D02*
D03*
D22*
X113508D02*
D03*
X121382D02*
D03*
X129256D02*
D03*
X137130D02*
D03*
X145004D02*
D03*
X152878D02*
D03*
X160752D02*
D03*
X168626D02*
D03*
X176500D02*
D03*
X184374D02*
D03*
X192248D02*
D03*
X200122D02*
D03*
X207996D02*
D03*
X105634Y134591D02*
D03*
X113508D02*
D03*
X121382D02*
D03*
X129256D02*
D03*
X137130D02*
D03*
X145004D02*
D03*
X152878D02*
D03*
X160752D02*
D03*
X168626D02*
D03*
X176500D02*
D03*
X184374D02*
D03*
X192248D02*
D03*
X200122D02*
D03*
X207996D02*
D03*
M02*
