G04*
G04 #@! TF.GenerationSoftware,Altium Limited,Altium Designer,20.1.14 (287)*
G04*
G04 Layer_Color=65535*
%FSLAX25Y25*%
%MOIN*%
G70*
G04*
G04 #@! TF.SameCoordinates,2D993F0E-9169-457A-8C09-F8E6D10386A7*
G04*
G04*
G04 #@! TF.FilePolarity,Positive*
G04*
G01*
G75*
%ADD10C,0.00787*%
%ADD11C,0.00500*%
%ADD12C,0.01000*%
D10*
X196894Y60004D02*
G03*
X196894Y60004I-394J0D01*
G01*
X16894D02*
G03*
X16894Y60004I-394J0D01*
G01*
X196894Y225004D02*
G03*
X196894Y225004I-394J0D01*
G01*
X16894D02*
G03*
X16894Y225004I-394J0D01*
G01*
X86343Y109000D02*
G03*
X86343Y109000I-394J0D01*
G01*
X176186Y26736D02*
Y49177D01*
Y52523D02*
Y56263D01*
Y49177D02*
X178548Y48980D01*
X176186Y52523D02*
X178548Y52720D01*
Y48980D02*
Y52720D01*
X136816Y36185D02*
Y56263D01*
X176186D01*
X136816Y26736D02*
Y33429D01*
X134453Y33134D02*
X136816Y33429D01*
X134453Y36480D02*
X136816Y36185D01*
X134453Y33134D02*
Y36480D01*
X136816Y26736D02*
X176186Y26736D01*
X136814Y198823D02*
Y221264D01*
Y191737D02*
Y195477D01*
X134452Y199020D02*
X136814Y198823D01*
X134452Y195280D02*
X136814Y195477D01*
X134452Y195280D02*
Y199020D01*
X176184Y191737D02*
Y211815D01*
X136814Y191737D02*
X176184D01*
Y214571D02*
Y221264D01*
Y214571D02*
X178547Y214866D01*
X176184Y211815D02*
X178547Y211520D01*
Y214866D01*
X136814Y221264D02*
X176184Y221264D01*
D11*
X186500Y25358D02*
Y57642D01*
X306500D01*
Y25358D02*
Y57642D01*
X186500Y25358D02*
X306500D01*
X6500D02*
Y57642D01*
X126500D01*
Y25358D02*
Y57642D01*
X6500Y25358D02*
X126500D01*
X186500Y190358D02*
Y222642D01*
X306500D01*
Y190358D02*
Y222642D01*
X186500Y190358D02*
X306500D01*
X6500D02*
Y222642D01*
X126500D01*
Y190358D02*
Y222642D01*
X6500Y190358D02*
X126500D01*
X88508Y100732D02*
Y142858D01*
X221972Y100732D02*
Y142858D01*
X88508D02*
X221972D01*
X88508Y100732D02*
X221972D01*
D12*
X23002Y226000D02*
Y227999D01*
Y227000D01*
X26001D01*
Y228999D02*
Y229999D01*
Y229499D01*
X23002D01*
X23502Y228999D01*
X26001Y231498D02*
Y232498D01*
Y231998D01*
X23002D01*
X23502Y231498D01*
X24502Y233997D02*
Y235997D01*
X26001Y236996D02*
Y237996D01*
Y237496D01*
X23002D01*
X23502Y236996D01*
X23002Y241495D02*
Y239496D01*
X24502D01*
X24002Y240495D01*
Y240995D01*
X24502Y241495D01*
X25501D01*
X26001Y240995D01*
Y239996D01*
X25501Y239496D01*
X29501Y227999D02*
X29001Y227500D01*
Y226500D01*
X29501Y226000D01*
X31500D01*
X32000Y226500D01*
Y227500D01*
X31500Y227999D01*
X30501D01*
Y227000D01*
X32000Y228999D02*
X29001D01*
X32000Y230998D01*
X29001D01*
Y231998D02*
X32000D01*
Y233498D01*
X31500Y233997D01*
X29501D01*
X29001Y233498D01*
Y231998D01*
X159002Y226000D02*
Y227999D01*
Y227000D01*
X162001D01*
Y228999D02*
X159002D01*
X160002Y229999D01*
X159002Y230998D01*
X162001D01*
Y233997D02*
Y231998D01*
X160002Y233997D01*
X159502D01*
X159002Y233498D01*
Y232498D01*
X159502Y231998D01*
X165501Y227999D02*
X165001Y227500D01*
Y226500D01*
X165501Y226000D01*
X167500D01*
X168000Y226500D01*
Y227500D01*
X167500Y227999D01*
X166500D01*
Y227000D01*
X168000Y228999D02*
X165001D01*
X168000Y230998D01*
X165001D01*
Y231998D02*
X168000D01*
Y233498D01*
X167500Y233997D01*
X165501D01*
X165001Y233498D01*
Y231998D01*
X200998Y22000D02*
Y20001D01*
Y21000D01*
X197999D01*
Y19001D02*
Y18001D01*
Y18501D01*
X200998D01*
X200498Y19001D01*
X199498Y16502D02*
Y14502D01*
X200998Y11503D02*
Y13503D01*
X199498D01*
X199998Y12503D01*
Y12003D01*
X199498Y11503D01*
X198499D01*
X197999Y12003D01*
Y13003D01*
X198499Y13503D01*
X194499Y20001D02*
X194999Y20501D01*
Y21500D01*
X194499Y22000D01*
X192500D01*
X192000Y21500D01*
Y20501D01*
X192500Y20001D01*
X193500D01*
Y21000D01*
X192000Y19001D02*
X194999D01*
X192000Y17002D01*
X194999D01*
Y16002D02*
X192000D01*
Y14502D01*
X192500Y14003D01*
X194499D01*
X194999Y14502D01*
Y16002D01*
X191002Y226000D02*
Y227999D01*
Y227000D01*
X194001D01*
X191002Y230998D02*
X191502Y229999D01*
X192502Y228999D01*
X193501D01*
X194001Y229499D01*
Y230499D01*
X193501Y230998D01*
X193001D01*
X192502Y230499D01*
Y228999D01*
Y231998D02*
Y233997D01*
X194001Y234997D02*
Y235997D01*
Y235497D01*
X191002D01*
X191502Y234997D01*
Y237496D02*
X191002Y237996D01*
Y238996D01*
X191502Y239496D01*
X193501D01*
X194001Y238996D01*
Y237996D01*
X193501Y237496D01*
X191502D01*
X197501Y227999D02*
X197001Y227500D01*
Y226500D01*
X197501Y226000D01*
X199500D01*
X200000Y226500D01*
Y227500D01*
X199500Y227999D01*
X198501D01*
Y227000D01*
X200000Y228999D02*
X197001D01*
X200000Y230998D01*
X197001D01*
Y231998D02*
X200000D01*
Y233498D01*
X199500Y233997D01*
X197501D01*
X197001Y233498D01*
Y231998D01*
X170998Y22000D02*
Y20001D01*
Y21000D01*
X167999D01*
Y19001D02*
X170998D01*
X169998Y18001D01*
X170998Y17002D01*
X167999D01*
Y16002D02*
Y15002D01*
Y15502D01*
X170998D01*
X170498Y16002D01*
X164499Y20001D02*
X164999Y20501D01*
Y21500D01*
X164499Y22000D01*
X162500D01*
X162000Y21500D01*
Y20501D01*
X162500Y20001D01*
X163499D01*
Y21000D01*
X162000Y19001D02*
X164999D01*
X162000Y17002D01*
X164999D01*
Y16002D02*
X162000D01*
Y14502D01*
X162500Y14003D01*
X164499D01*
X164999Y14502D01*
Y16002D01*
X31998Y23000D02*
Y21001D01*
Y22000D01*
X28999D01*
Y20001D02*
Y19001D01*
Y19501D01*
X31998D01*
X31498Y20001D01*
X31998Y15502D02*
X31498Y16502D01*
X30498Y17502D01*
X29499D01*
X28999Y17002D01*
Y16002D01*
X29499Y15502D01*
X29998D01*
X30498Y16002D01*
Y17502D01*
Y14503D02*
Y12503D01*
X28999Y9504D02*
Y11504D01*
X30998Y9504D01*
X31498D01*
X31998Y10004D01*
Y11004D01*
X31498Y11504D01*
Y8505D02*
X31998Y8005D01*
Y7005D01*
X31498Y6505D01*
X29499D01*
X28999Y7005D01*
Y8005D01*
X29499Y8505D01*
X31498D01*
X25499Y21001D02*
X25999Y21500D01*
Y22500D01*
X25499Y23000D01*
X23500D01*
X23000Y22500D01*
Y21500D01*
X23500Y21001D01*
X24499D01*
Y22000D01*
X23000Y20001D02*
X25999D01*
X23000Y18002D01*
X25999D01*
Y17002D02*
X23000D01*
Y15502D01*
X23500Y15003D01*
X25499D01*
X25999Y15502D01*
Y17002D01*
X35001Y226000D02*
Y227999D01*
Y227000D01*
X38000D01*
Y228999D02*
Y229999D01*
Y229499D01*
X35001D01*
X35501Y228999D01*
X35001Y233498D02*
Y231498D01*
X36500D01*
X36001Y232498D01*
Y232998D01*
X36500Y233498D01*
X37500D01*
X38000Y232998D01*
Y231998D01*
X37500Y231498D01*
X54001Y226000D02*
Y227999D01*
Y227000D01*
X57000D01*
Y228999D02*
Y229999D01*
Y229499D01*
X54001D01*
X54501Y228999D01*
X57000Y232998D02*
X54001D01*
X55501Y231498D01*
Y233498D01*
X74001Y226000D02*
Y227999D01*
Y227000D01*
X77000D01*
Y228999D02*
Y229999D01*
Y229499D01*
X74001D01*
X74501Y228999D01*
Y231498D02*
X74001Y231998D01*
Y232998D01*
X74501Y233498D01*
X75001D01*
X75501Y232998D01*
Y232498D01*
Y232998D01*
X76000Y233498D01*
X76500D01*
X77000Y232998D01*
Y231998D01*
X76500Y231498D01*
X94001Y226000D02*
Y227999D01*
Y227000D01*
X97000D01*
Y228999D02*
Y229999D01*
Y229499D01*
X94001D01*
X94501Y228999D01*
X97000Y233498D02*
Y231498D01*
X95001Y233498D01*
X94501D01*
X94001Y232998D01*
Y231998D01*
X94501Y231498D01*
X114001Y226000D02*
Y227999D01*
Y227000D01*
X117000D01*
Y228999D02*
Y229999D01*
Y229499D01*
X114001D01*
X114501Y228999D01*
X117000Y231498D02*
Y232498D01*
Y231998D01*
X114001D01*
X114501Y231498D01*
X146001Y226000D02*
Y227999D01*
Y227000D01*
X149000D01*
Y228999D02*
X146001D01*
X147001Y229999D01*
X146001Y230998D01*
X149000D01*
Y233997D02*
Y231998D01*
X147001Y233997D01*
X146501D01*
X146001Y233498D01*
Y232498D01*
X146501Y231998D01*
X215001Y226000D02*
Y227999D01*
Y227000D01*
X218000D01*
Y228999D02*
Y229999D01*
Y229499D01*
X215001D01*
X215501Y228999D01*
Y231498D02*
X215001Y231998D01*
Y232998D01*
X215501Y233498D01*
X217500D01*
X218000Y232998D01*
Y231998D01*
X217500Y231498D01*
X215501D01*
X234001Y226000D02*
Y227999D01*
Y227000D01*
X237000D01*
X236500Y228999D02*
X237000Y229499D01*
Y230499D01*
X236500Y230998D01*
X234501D01*
X234001Y230499D01*
Y229499D01*
X234501Y228999D01*
X235001D01*
X235501Y229499D01*
Y230998D01*
X254001Y226000D02*
Y227999D01*
Y227000D01*
X257000D01*
X254501Y228999D02*
X254001Y229499D01*
Y230499D01*
X254501Y230998D01*
X255001D01*
X255501Y230499D01*
X256000Y230998D01*
X256500D01*
X257000Y230499D01*
Y229499D01*
X256500Y228999D01*
X256000D01*
X255501Y229499D01*
X255001Y228999D01*
X254501D01*
X255501Y229499D02*
Y230499D01*
X274001Y226000D02*
Y227999D01*
Y227000D01*
X277000D01*
X274001Y228999D02*
Y230998D01*
X274501D01*
X276500Y228999D01*
X277000D01*
X287001Y226000D02*
Y227999D01*
Y227000D01*
X290000D01*
X287001Y230998D02*
X287501Y229999D01*
X288500Y228999D01*
X289500D01*
X290000Y229499D01*
Y230499D01*
X289500Y230998D01*
X289000D01*
X288500Y230499D01*
Y228999D01*
X277999Y22000D02*
Y20001D01*
Y21000D01*
X275000D01*
Y17501D02*
X277999D01*
X276500Y19001D01*
Y17002D01*
X37999Y22000D02*
Y20001D01*
Y21000D01*
X35000D01*
Y19001D02*
Y18001D01*
Y18501D01*
X37999D01*
X37499Y19001D01*
X37999Y14502D02*
X37499Y15502D01*
X36500Y16502D01*
X35500D01*
X35000Y16002D01*
Y15002D01*
X35500Y14502D01*
X36000D01*
X36500Y15002D01*
Y16502D01*
X57999Y22000D02*
Y20001D01*
Y21000D01*
X55000D01*
Y19001D02*
Y18001D01*
Y18501D01*
X57999D01*
X57499Y19001D01*
X57999Y16502D02*
Y14502D01*
X57499D01*
X55500Y16502D01*
X55000D01*
X77999Y22000D02*
Y20001D01*
Y21000D01*
X75000D01*
Y19001D02*
Y18001D01*
Y18501D01*
X77999D01*
X77499Y19001D01*
Y16502D02*
X77999Y16002D01*
Y15002D01*
X77499Y14502D01*
X76999D01*
X76499Y15002D01*
X76000Y14502D01*
X75500D01*
X75000Y15002D01*
Y16002D01*
X75500Y16502D01*
X76000D01*
X76499Y16002D01*
X76999Y16502D01*
X77499D01*
X76499Y16002D02*
Y15002D01*
X96999Y22000D02*
Y20001D01*
Y21000D01*
X94000D01*
Y19001D02*
Y18001D01*
Y18501D01*
X96999D01*
X96499Y19001D01*
X94500Y16502D02*
X94000Y16002D01*
Y15002D01*
X94500Y14502D01*
X96499D01*
X96999Y15002D01*
Y16002D01*
X96499Y16502D01*
X95999D01*
X95499Y16002D01*
Y14502D01*
X117999Y22000D02*
Y20001D01*
Y21000D01*
X115000D01*
Y17002D02*
Y19001D01*
X116999Y17002D01*
X117499D01*
X117999Y17501D01*
Y18501D01*
X117499Y19001D01*
Y16002D02*
X117999Y15502D01*
Y14502D01*
X117499Y14003D01*
X115500D01*
X115000Y14502D01*
Y15502D01*
X115500Y16002D01*
X117499D01*
X147999Y22000D02*
Y20001D01*
Y21000D01*
X145000D01*
Y19001D02*
X147999D01*
X146999Y18001D01*
X147999Y17002D01*
X145000D01*
Y16002D02*
Y15002D01*
Y15502D01*
X147999D01*
X147499Y16002D01*
X217999Y22000D02*
Y20001D01*
Y21000D01*
X215000D01*
Y19001D02*
Y18001D01*
Y18501D01*
X217999D01*
X217499Y19001D01*
X236999Y22000D02*
Y20001D01*
Y21000D01*
X234000D01*
Y17002D02*
Y19001D01*
X235999Y17002D01*
X236499D01*
X236999Y17501D01*
Y18501D01*
X236499Y19001D01*
X256999Y22000D02*
Y20001D01*
Y21000D01*
X254000D01*
X256499Y19001D02*
X256999Y18501D01*
Y17501D01*
X256499Y17002D01*
X255999D01*
X255500Y17501D01*
Y18001D01*
Y17501D01*
X255000Y17002D01*
X254500D01*
X254000Y17501D01*
Y18501D01*
X254500Y19001D01*
X289999Y22000D02*
Y20001D01*
Y21000D01*
X287000D01*
X289999Y17002D02*
Y19001D01*
X288499D01*
X288999Y18001D01*
Y17501D01*
X288499Y17002D01*
X287500D01*
X287000Y17501D01*
Y18501D01*
X287500Y19001D01*
X108048Y63495D02*
Y61528D01*
X109524D01*
Y62511D01*
Y61528D01*
X111000D01*
Y66447D02*
Y64479D01*
X109032Y66447D01*
X108540D01*
X108048Y65955D01*
Y64971D01*
X108540Y64479D01*
Y67431D02*
X108048Y67923D01*
Y68907D01*
X108540Y69399D01*
X109032D01*
X109524Y68907D01*
X110016Y69399D01*
X110508D01*
X111000Y68907D01*
Y67923D01*
X110508Y67431D01*
X110016D01*
X109524Y67923D01*
X109032Y67431D01*
X108540D01*
X109524Y67923D02*
Y68907D01*
X188048Y63495D02*
Y61528D01*
X189524D01*
Y62511D01*
Y61528D01*
X191000D01*
Y66447D02*
Y64479D01*
X189032Y66447D01*
X188540D01*
X188048Y65955D01*
Y64971D01*
X188540Y64479D01*
X188048Y67431D02*
Y69399D01*
X188540D01*
X190508Y67431D01*
X191000D01*
X208048Y63495D02*
Y61528D01*
X209524D01*
Y62511D01*
Y61528D01*
X211000D01*
Y66447D02*
Y64479D01*
X209032Y66447D01*
X208540D01*
X208048Y65955D01*
Y64971D01*
X208540Y64479D01*
X208048Y69399D02*
X208540Y68415D01*
X209524Y67431D01*
X210508D01*
X211000Y67923D01*
Y68907D01*
X210508Y69399D01*
X210016D01*
X209524Y68907D01*
Y67431D01*
X228048Y63495D02*
Y61528D01*
X229524D01*
Y62511D01*
Y61528D01*
X231000D01*
Y66447D02*
Y64479D01*
X229032Y66447D01*
X228540D01*
X228048Y65955D01*
Y64971D01*
X228540Y64479D01*
X228048Y69399D02*
Y67431D01*
X229524D01*
X229032Y68415D01*
Y68907D01*
X229524Y69399D01*
X230508D01*
X231000Y68907D01*
Y67923D01*
X230508Y67431D01*
X248048Y63968D02*
Y62000D01*
X249524D01*
Y62984D01*
Y62000D01*
X251000D01*
Y66920D02*
Y64952D01*
X249032Y66920D01*
X248540D01*
X248048Y66428D01*
Y65444D01*
X248540Y64952D01*
X251000Y69380D02*
X248048D01*
X249524Y67904D01*
Y69871D01*
X268048Y63495D02*
Y61528D01*
X269524D01*
Y62511D01*
Y61528D01*
X271000D01*
Y66447D02*
Y64479D01*
X269032Y66447D01*
X268540D01*
X268048Y65955D01*
Y64971D01*
X268540Y64479D01*
Y67431D02*
X268048Y67923D01*
Y68907D01*
X268540Y69399D01*
X269032D01*
X269524Y68907D01*
Y68415D01*
Y68907D01*
X270016Y69399D01*
X270508D01*
X271000Y68907D01*
Y67923D01*
X270508Y67431D01*
X288048Y63495D02*
Y61528D01*
X289524D01*
Y62511D01*
Y61528D01*
X291000D01*
Y66447D02*
Y64479D01*
X289032Y66447D01*
X288540D01*
X288048Y65955D01*
Y64971D01*
X288540Y64479D01*
X291000Y69399D02*
Y67431D01*
X289032Y69399D01*
X288540D01*
X288048Y68907D01*
Y67923D01*
X288540Y67431D01*
X138048Y63495D02*
Y61528D01*
X139524D01*
Y62511D01*
Y61528D01*
X141000D01*
Y66447D02*
Y64479D01*
X139032Y66447D01*
X138540D01*
X138048Y65955D01*
Y64971D01*
X138540Y64479D01*
X141000Y67431D02*
Y68415D01*
Y67923D01*
X138048D01*
X138540Y67431D01*
X157891Y63495D02*
Y61528D01*
X159367D01*
Y62511D01*
Y61528D01*
X160843D01*
Y66447D02*
Y64479D01*
X158875Y66447D01*
X158383D01*
X157891Y65955D01*
Y64971D01*
X158383Y64479D01*
Y67431D02*
X157891Y67923D01*
Y68907D01*
X158383Y69399D01*
X160351D01*
X160843Y68907D01*
Y67923D01*
X160351Y67431D01*
X158383D01*
X8048Y63968D02*
Y62000D01*
X9524D01*
Y62984D01*
Y62000D01*
X11000D01*
Y64952D02*
Y65936D01*
Y65444D01*
X8048D01*
X8540Y64952D01*
X10508Y67412D02*
X11000Y67904D01*
Y68888D01*
X10508Y69380D01*
X8540D01*
X8048Y68888D01*
Y67904D01*
X8540Y67412D01*
X9032D01*
X9524Y67904D01*
Y69380D01*
X28048Y63968D02*
Y62000D01*
X29524D01*
Y62984D01*
Y62000D01*
X31000D01*
Y64952D02*
Y65936D01*
Y65444D01*
X28048D01*
X28540Y64952D01*
Y67412D02*
X28048Y67904D01*
Y68888D01*
X28540Y69380D01*
X29032D01*
X29524Y68888D01*
X30016Y69380D01*
X30508D01*
X31000Y68888D01*
Y67904D01*
X30508Y67412D01*
X30016D01*
X29524Y67904D01*
X29032Y67412D01*
X28540D01*
X29524Y67904D02*
Y68888D01*
X48048Y63495D02*
Y61528D01*
X49524D01*
Y62511D01*
Y61528D01*
X51000D01*
Y64479D02*
Y65463D01*
Y64971D01*
X48048D01*
X48540Y64479D01*
X48048Y66939D02*
Y68907D01*
X48540D01*
X50508Y66939D01*
X51000D01*
X68048Y63495D02*
Y61528D01*
X69524D01*
Y62511D01*
Y61528D01*
X71000D01*
Y64479D02*
Y65463D01*
Y64971D01*
X68048D01*
X68540Y64479D01*
X68048Y68907D02*
X68540Y67923D01*
X69524Y66939D01*
X70508D01*
X71000Y67431D01*
Y68415D01*
X70508Y68907D01*
X70016D01*
X69524Y68415D01*
Y66939D01*
X88048Y63495D02*
Y61528D01*
X89524D01*
Y62511D01*
Y61528D01*
X91000D01*
Y64479D02*
Y65463D01*
Y64971D01*
X88048D01*
X88540Y64479D01*
X88048Y68907D02*
Y66939D01*
X89524D01*
X89032Y67923D01*
Y68415D01*
X89524Y68907D01*
X90508D01*
X91000Y68415D01*
Y67431D01*
X90508Y66939D01*
X288048Y175495D02*
Y173528D01*
X289524D01*
Y174512D01*
Y173528D01*
X291000D01*
Y176479D02*
Y177463D01*
Y176971D01*
X288048D01*
X288540Y176479D01*
X291000Y180415D02*
X288048D01*
X289524Y178939D01*
Y180907D01*
X268048Y175968D02*
Y174000D01*
X269524D01*
Y174984D01*
Y174000D01*
X271000D01*
Y176952D02*
Y177936D01*
Y177444D01*
X268048D01*
X268540Y176952D01*
Y179412D02*
X268048Y179904D01*
Y180888D01*
X268540Y181379D01*
X269032D01*
X269524Y180888D01*
Y180396D01*
Y180888D01*
X270016Y181379D01*
X270508D01*
X271000Y180888D01*
Y179904D01*
X270508Y179412D01*
X248048Y175968D02*
Y174000D01*
X249524D01*
Y174984D01*
Y174000D01*
X251000D01*
Y176952D02*
Y177936D01*
Y177444D01*
X248048D01*
X248540Y176952D01*
X251000Y181379D02*
Y179412D01*
X249032Y181379D01*
X248540D01*
X248048Y180888D01*
Y179904D01*
X248540Y179412D01*
X228048Y175968D02*
Y174000D01*
X229524D01*
Y174984D01*
Y174000D01*
X231000D01*
Y176952D02*
Y177936D01*
Y177444D01*
X228048D01*
X228540Y176952D01*
X231000Y179412D02*
Y180396D01*
Y179904D01*
X228048D01*
X228540Y179412D01*
X208048Y175968D02*
Y174000D01*
X209524D01*
Y174984D01*
Y174000D01*
X211000D01*
Y176952D02*
Y177936D01*
Y177444D01*
X208048D01*
X208540Y176952D01*
Y179412D02*
X208048Y179904D01*
Y180888D01*
X208540Y181379D01*
X210508D01*
X211000Y180888D01*
Y179904D01*
X210508Y179412D01*
X208540D01*
X188048Y175495D02*
Y173528D01*
X189524D01*
Y174512D01*
Y173528D01*
X191000D01*
X190508Y176479D02*
X191000Y176971D01*
Y177955D01*
X190508Y178447D01*
X188540D01*
X188048Y177955D01*
Y176971D01*
X188540Y176479D01*
X189032D01*
X189524Y176971D01*
Y178447D01*
X138048Y175968D02*
Y174000D01*
X139524D01*
Y174984D01*
Y174000D01*
X141000D01*
X138540Y176952D02*
X138048Y177444D01*
Y178428D01*
X138540Y178920D01*
X139032D01*
X139524Y178428D01*
X140016Y178920D01*
X140508D01*
X141000Y178428D01*
Y177444D01*
X140508Y176952D01*
X140016D01*
X139524Y177444D01*
X139032Y176952D01*
X138540D01*
X139524Y177444D02*
Y178428D01*
X158048Y175968D02*
Y174000D01*
X159524D01*
Y174984D01*
Y174000D01*
X161000D01*
X158048Y176952D02*
Y178920D01*
X158540D01*
X160508Y176952D01*
X161000D01*
X108048Y175495D02*
Y173528D01*
X109524D01*
Y174512D01*
Y173528D01*
X111000D01*
X108048Y178447D02*
X108540Y177463D01*
X109524Y176479D01*
X110508D01*
X111000Y176971D01*
Y177955D01*
X110508Y178447D01*
X110016D01*
X109524Y177955D01*
Y176479D01*
X88048Y175495D02*
Y173528D01*
X89524D01*
Y174512D01*
Y173528D01*
X91000D01*
X88048Y178447D02*
Y176479D01*
X89524D01*
X89032Y177463D01*
Y177955D01*
X89524Y178447D01*
X90508D01*
X91000Y177955D01*
Y176971D01*
X90508Y176479D01*
X68048Y175495D02*
Y173528D01*
X69524D01*
Y174512D01*
Y173528D01*
X71000D01*
Y177955D02*
X68048D01*
X69524Y176479D01*
Y178447D01*
X48048Y175495D02*
Y173528D01*
X49524D01*
Y174512D01*
Y173528D01*
X51000D01*
X48540Y176479D02*
X48048Y176971D01*
Y177955D01*
X48540Y178447D01*
X49032D01*
X49524Y177955D01*
Y177463D01*
Y177955D01*
X50016Y178447D01*
X50508D01*
X51000Y177955D01*
Y176971D01*
X50508Y176479D01*
X28048Y175968D02*
Y174000D01*
X29524D01*
Y174984D01*
Y174000D01*
X31000D01*
Y178920D02*
Y176952D01*
X29032Y178920D01*
X28540D01*
X28048Y178428D01*
Y177444D01*
X28540Y176952D01*
X8048Y175495D02*
Y173528D01*
X9524D01*
Y174512D01*
Y173528D01*
X11000D01*
Y176479D02*
Y177463D01*
Y176971D01*
X8048D01*
X8540Y176479D01*
X140500Y84499D02*
X138501D01*
X139501D01*
Y79501D01*
X138501Y78501D01*
X137501D01*
X136502Y79501D01*
X142500Y84499D02*
X146498D01*
Y83499D01*
X142500Y79501D01*
Y78501D01*
X193000Y84499D02*
X191001D01*
X192001D01*
Y79501D01*
X191001Y78501D01*
X190001D01*
X189002Y79501D01*
X198998Y84499D02*
X196999Y83499D01*
X195000Y81500D01*
Y79501D01*
X195999Y78501D01*
X197999D01*
X198998Y79501D01*
Y80500D01*
X197999Y81500D01*
X195000D01*
X10500Y84499D02*
X8501D01*
X9501D01*
Y79501D01*
X8501Y78501D01*
X7501D01*
X6502Y79501D01*
X16498Y84499D02*
X12500D01*
Y81500D01*
X14499Y82500D01*
X15499D01*
X16498Y81500D01*
Y79501D01*
X15499Y78501D01*
X13499D01*
X12500Y79501D01*
X140500Y169499D02*
X138501D01*
X139501D01*
Y164501D01*
X138501Y163501D01*
X137501D01*
X136502Y164501D01*
X145499Y163501D02*
Y169499D01*
X142500Y166500D01*
X146498D01*
X193000Y169499D02*
X191001D01*
X192001D01*
Y164501D01*
X191001Y163501D01*
X190001D01*
X189002Y164501D01*
X195000Y168499D02*
X195999Y169499D01*
X197999D01*
X198998Y168499D01*
Y167500D01*
X197999Y166500D01*
X196999D01*
X197999D01*
X198998Y165500D01*
Y164501D01*
X197999Y163501D01*
X195999D01*
X195000Y164501D01*
X13000Y169499D02*
X11001D01*
X12001D01*
Y164501D01*
X11001Y163501D01*
X10001D01*
X9002Y164501D01*
X18998Y163501D02*
X15000D01*
X18998Y167500D01*
Y168499D01*
X17999Y169499D01*
X15999D01*
X15000Y168499D01*
X90199Y152898D02*
X88199D01*
X89199D01*
Y147900D01*
X88199Y146900D01*
X87200D01*
X86200Y147900D01*
X92198Y146900D02*
X94197D01*
X93198D01*
Y152898D01*
X92198Y151898D01*
M02*
