G04*
G04 #@! TF.GenerationSoftware,Altium Limited,Altium Designer,20.1.14 (287)*
G04*
G04 Layer_Color=8421504*
%FSLAX25Y25*%
%MOIN*%
G70*
G04*
G04 #@! TF.SameCoordinates,2D993F0E-9169-457A-8C09-F8E6D10386A7*
G04*
G04*
G04 #@! TF.FilePolarity,Positive*
G04*
G01*
G75*
%ADD13R,0.07008X0.04488*%
D13*
X116500Y73500D02*
D03*
Y63028D02*
D03*
X196500Y73500D02*
D03*
Y63028D02*
D03*
X216500Y73500D02*
D03*
Y63028D02*
D03*
X236500Y73500D02*
D03*
Y63028D02*
D03*
X256500Y73972D02*
D03*
Y63500D02*
D03*
X276500Y73500D02*
D03*
Y63028D02*
D03*
X296500Y73500D02*
D03*
Y63028D02*
D03*
X146500Y73500D02*
D03*
Y63028D02*
D03*
X166342Y73500D02*
D03*
Y63028D02*
D03*
X16500Y73972D02*
D03*
Y63500D02*
D03*
X36500Y73972D02*
D03*
Y63500D02*
D03*
X56500Y73500D02*
D03*
Y63028D02*
D03*
X76500Y73500D02*
D03*
Y63028D02*
D03*
X96500Y73500D02*
D03*
Y63028D02*
D03*
X296500Y185500D02*
D03*
Y175028D02*
D03*
X276500Y185972D02*
D03*
Y175500D02*
D03*
X256500Y185972D02*
D03*
Y175500D02*
D03*
X236500Y185972D02*
D03*
Y175500D02*
D03*
X216500Y185972D02*
D03*
Y175500D02*
D03*
X196500Y185500D02*
D03*
Y175028D02*
D03*
X146500Y185972D02*
D03*
Y175500D02*
D03*
X166500Y185972D02*
D03*
Y175500D02*
D03*
X116500Y185500D02*
D03*
Y175028D02*
D03*
X96500Y185500D02*
D03*
Y175028D02*
D03*
X76500Y185500D02*
D03*
Y175028D02*
D03*
X56500Y185500D02*
D03*
Y175028D02*
D03*
X36500Y185972D02*
D03*
Y175500D02*
D03*
X16500Y185500D02*
D03*
Y175028D02*
D03*
M02*
