%FSTAX23Y23*%
%MOIN*%
%SFA1B1*%

%IPPOS*%
%ADD12C,0.010000*%
%ADD13R,0.070080X0.044880*%
%ADD23R,0.064960X0.064960*%
%ADD24C,0.064960*%
%ADD25C,0.076770*%
%ADD26R,0.076770X0.076770*%
%ADD27C,0.160000*%
%ADD28C,0.062990*%
%ADD29R,0.047240X0.047240*%
%ADD30C,0.047240*%
%LNtherms-1*%
%LPD*%
G54D12*
X02165Y00735D02*
X0217Y0074D01*
Y0081*
X02025Y0083D02*
X0215D01*
X0217Y0081*
X01765Y0109D02*
X02025Y0083D01*
X01843Y0109D02*
X02043Y0089D01*
X0231*
X02365Y00835*
Y00735D02*
Y00835D01*
X01922Y0109D02*
X02062Y0095D01*
X0251*
X02565Y00895*
Y00739D02*
Y00895D01*
X02001Y0109D02*
X02081Y0101D01*
X0266*
X02765Y00905*
Y00735D02*
Y00905D01*
X02079Y0109D02*
X0276D01*
X02965Y00735D02*
Y00885D01*
X0276Y0109D02*
X02965Y00885D01*
X01686Y0109D02*
X01965Y00811D01*
Y00735D02*
Y00811D01*
X01663Y00735D02*
Y01034D01*
X01607Y0109D02*
X01663Y01034D01*
X01465Y00735D02*
Y01026D01*
X01528Y0109*
X01165Y00735D02*
X0117Y0074D01*
Y0081*
X0145Y0109*
X0145*
X00965Y00735D02*
X0097Y0074D01*
Y0077*
X0102Y0082*
X01101D02*
X01371Y0109D01*
X0102Y0082D02*
X01101D01*
X00765Y00735D02*
Y00805D01*
X0083Y0087*
X01072D02*
X01292Y0109D01*
X0083Y0087D02*
X01072D01*
X00565Y00735D02*
Y00805D01*
X0069Y0093*
X01053D02*
X01213Y0109D01*
X0069Y0093D02*
X01053D01*
X00365Y00739D02*
Y00855D01*
X0051Y01*
X01045*
X01135Y0109*
X00986D02*
X01056D01*
X00983Y01093D02*
X00986Y0109D01*
X00353Y01093D02*
X00983D01*
X00165Y00905D02*
X00353Y01093D01*
X00165Y00739D02*
Y00905D01*
X02075Y0142D02*
X026D01*
X02001Y01345D02*
X02075Y0142D01*
X026D02*
X02765Y01585D01*
Y01755*
X02079Y01345D02*
X02775D01*
X02965Y01535D02*
Y0175D01*
X02775Y01345D02*
X02965Y01535D01*
X02565Y01625D02*
Y01755D01*
X0243Y0149D02*
X02565Y01625D01*
X02066Y0149D02*
X0243D01*
X01922Y01345D02*
X02066Y0149D01*
X0256Y0175D02*
X02565Y01755D01*
X02057Y0156D02*
X0222D01*
X01843Y01345D02*
X02057Y0156D01*
X0222D02*
X02365Y01705D01*
Y01755*
X02165Y01655D02*
Y01755D01*
X0213Y0162D02*
X02165Y01655D01*
X0204Y0162D02*
X0213D01*
X01765Y01345D02*
X01765D01*
X0204Y0162*
X01686Y01345D02*
X01965Y01624D01*
Y0175*
X01665Y01403D02*
Y01755D01*
X01607Y01345D02*
X01665Y01403D01*
X01465Y01409D02*
Y01755D01*
Y01409D02*
X01528Y01345D01*
X01165Y0163D02*
X0145Y01345D01*
X01165Y0163D02*
Y0175D01*
X00965D02*
X00977D01*
X01364Y01363*
Y01353D02*
Y01363D01*
Y01353D02*
X01371Y01345D01*
X01028Y0161D02*
X01292Y01345D01*
X008Y0161D02*
X01028D01*
X00765Y01645D02*
Y0175D01*
Y01645D02*
X008Y0161D01*
X01029Y0153D02*
X01213Y01345D01*
X006Y0153D02*
X01029D01*
X00565Y01565D02*
Y0175D01*
Y01565D02*
X006Y0153D01*
X0103Y0145D02*
X01135Y01345D01*
X0045Y0145D02*
X0103D01*
X00365Y01535D02*
Y01755D01*
Y01535D02*
X0045Y0145D01*
X01052Y0135D02*
X01056Y01345D01*
X0033Y0135D02*
X01052D01*
X00165Y01515D02*
Y0175D01*
Y01515D02*
X0033Y0135D01*
X00165Y01855D02*
Y02065D01*
X00365Y01859D02*
Y02065D01*
X00565Y01855D02*
Y02065D01*
X00765Y01855D02*
Y02065D01*
X00965Y01855D02*
Y02065D01*
X01165Y01855D02*
Y02065D01*
X01466Y01861D02*
Y02082D01*
X01465Y01859D02*
X01466Y01861D01*
X01665Y01859D02*
Y02081D01*
X01663Y02082D02*
X01665Y02081D01*
X01965Y01855D02*
Y02065D01*
X02165Y01859D02*
Y02065D01*
X02365Y01859D02*
Y02065D01*
X02565Y01859D02*
Y02065D01*
X02765Y01859D02*
Y02065D01*
X02965Y01855D02*
Y02065D01*
Y00415D02*
Y0063D01*
X02765Y00415D02*
Y0063D01*
X02565Y00415D02*
Y00635D01*
X02365Y00415D02*
Y0063D01*
X02165Y00415D02*
Y0063D01*
X01965Y00415D02*
Y0063D01*
X01663Y00397D02*
Y0063D01*
D01*
X01465Y00398D02*
Y0063D01*
Y00398D02*
X01466Y00397D01*
X01165Y00415D02*
Y0063D01*
X00965Y00415D02*
Y0063D01*
X00765Y00415D02*
Y0063D01*
X00565Y00415D02*
Y0063D01*
X00365Y00415D02*
Y00635D01*
X00165Y00415D02*
Y00635D01*
G54D13*
X01165Y00735D03*
Y0063D03*
X01965Y00735D03*
Y0063D03*
X02165Y00735D03*
Y0063D03*
X02365Y00735D03*
Y0063D03*
X02565Y00739D03*
Y00635D03*
X02765Y00735D03*
Y0063D03*
X02965Y00735D03*
Y0063D03*
X01465Y00735D03*
Y0063D03*
X01663Y00735D03*
Y0063D03*
X00165Y00739D03*
Y00635D03*
X00365Y00739D03*
Y00635D03*
X00565Y00735D03*
Y0063D03*
X00765Y00735D03*
Y0063D03*
X00965Y00735D03*
Y0063D03*
X02965Y01855D03*
Y0175D03*
X02765Y01859D03*
Y01755D03*
X02565Y01859D03*
Y01755D03*
X02365Y01859D03*
Y01755D03*
X02165Y01859D03*
Y01755D03*
X01965Y01855D03*
Y0175D03*
X01465Y01859D03*
Y01755D03*
X01665Y01859D03*
Y01755D03*
X01165Y01855D03*
Y0175D03*
X00965Y01855D03*
Y0175D03*
X00765Y01855D03*
Y0175D03*
X00565Y01855D03*
Y0175D03*
X00365Y01859D03*
Y01755D03*
X00165Y01855D03*
Y0175D03*
G54D23*
X01965Y00415D03*
X00165D03*
X01965Y02065D03*
X00165D03*
G54D24*
X02165Y00415D03*
X02365D03*
X02565D03*
X02765D03*
X02965D03*
X00365D03*
X00565D03*
X00765D03*
X00965D03*
X01165D03*
X02165Y02065D03*
X02365D03*
X02565D03*
X02765D03*
X02965D03*
X00365D03*
X00565D03*
X00765D03*
X00965D03*
X01165D03*
G54D25*
X01663Y00397D03*
X01466Y02082D03*
G54D26*
X01466Y00397D03*
X01663Y02082D03*
G54D27*
X0014Y0234D03*
X0299D03*
Y0014D03*
X0014D03*
G54D28*
X00952Y01046D03*
G54D29*
X01056Y0109D03*
G54D30*
X01135Y0109D03*
X01213D03*
X01292D03*
X01371D03*
X0145D03*
X01528D03*
X01607D03*
X01686D03*
X01765D03*
X01843D03*
X01922D03*
X02001D03*
X02079D03*
X01056Y01345D03*
X01135D03*
X01213D03*
X01292D03*
X01371D03*
X0145D03*
X01528D03*
X01607D03*
X01686D03*
X01765D03*
X01843D03*
X01922D03*
X02001D03*
X02079D03*
M02*