M48
;Layer_Color=9474304
;FILE_FORMAT=2:5
INCH,TZ
;TYPE=PLATED
T1F00S00C0.03346
T2F00S00C0.05118
T3F00S00C0.14400
;TYPE=NON_PLATED
T4F00S00C0.06299
%
T01
X214252Y80000
X222126
X230000
X237874
X245748
X253622
X261496
X269370
X277244
Y105591
X269370
X261496
X253622
X245748
X237874
X230000
X222126
X214252
X206378
X198504
X190630
X182756
Y80000
X190630
X198504
X206378
T02
X36158Y26228
X55843
X82157
X101842
X128157
X147843
X174158
X193842
X220158
X239843
X266158
X285842
X312158
X331842
X358157
X377842
X404000Y26000
X423685
X428000Y160000
X447685
X401842Y159772
X382157
X355685Y160000
X336000
X309685
X290000
X263685
X244000
X217685
X198000
X171685
X152000
X125685
X106000
X79685
X60000
X33843Y159772
X14157
T03
X12000Y12000
X450000
Y184000
X12000
T04
X287677Y109921
M30
