G04*
G04 #@! TF.GenerationSoftware,Altium Limited,Altium Designer,20.1.14 (287)*
G04*
G04 Layer_Color=65535*
%FSLAX25Y25*%
%MOIN*%
G70*
G04*
G04 #@! TF.SameCoordinates,AD4F6338-5A94-4AA3-B556-C82436557DC4*
G04*
G04*
G04 #@! TF.FilePolarity,Positive*
G04*
G01*
G75*
%ADD10C,0.00787*%
%ADD11C,0.00500*%
%ADD12C,0.01000*%
D10*
X297323Y105591D02*
X296535D01*
X297323D01*
X433528Y13008D02*
Y35449D01*
Y38795D02*
Y42535D01*
Y35449D02*
X435890Y35252D01*
X433528Y38795D02*
X435890Y38992D01*
Y35252D02*
Y38992D01*
X394158Y22456D02*
Y42535D01*
X433528D01*
X394158Y13008D02*
Y19701D01*
X391796Y19405D02*
X394158Y19701D01*
X391796Y22752D02*
X394158Y22456D01*
X391796Y19405D02*
Y22752D01*
X394158Y13008D02*
X433528Y13008D01*
X387686Y13236D02*
Y35677D01*
Y39023D02*
Y42763D01*
Y35677D02*
X390048Y35480D01*
X387686Y39023D02*
X390048Y39220D01*
Y35480D02*
Y39220D01*
X348316Y22685D02*
Y42763D01*
X387686D01*
X348316Y13236D02*
Y19929D01*
X345953Y19634D02*
X348316Y19929D01*
X345953Y22980D02*
X348316Y22685D01*
X345953Y19634D02*
Y22980D01*
X348316Y13236D02*
X387686Y13236D01*
X341686D02*
Y35677D01*
Y39023D02*
Y42763D01*
Y35677D02*
X344048Y35480D01*
X341686Y39023D02*
X344048Y39220D01*
Y35480D02*
Y39220D01*
X302315Y22685D02*
Y42763D01*
X341686D01*
X302315Y13236D02*
Y19929D01*
X299953Y19634D02*
X302315Y19929D01*
X299953Y22980D02*
X302315Y22685D01*
X299953Y19634D02*
Y22980D01*
X302315Y13236D02*
X341686Y13236D01*
X295686D02*
Y35677D01*
Y39023D02*
Y42763D01*
Y35677D02*
X298048Y35480D01*
X295686Y39023D02*
X298048Y39220D01*
Y35480D02*
Y39220D01*
X256315Y22685D02*
Y42763D01*
X295686D01*
X256315Y13236D02*
Y19929D01*
X253953Y19634D02*
X256315Y19929D01*
X253953Y22980D02*
X256315Y22685D01*
X253953Y19634D02*
Y22980D01*
X256315Y13236D02*
X295686Y13236D01*
X249686D02*
Y35677D01*
Y39023D02*
Y42763D01*
Y35677D02*
X252048Y35480D01*
X249686Y39023D02*
X252048Y39220D01*
Y35480D02*
Y39220D01*
X210315Y22685D02*
Y42763D01*
X249686D01*
X210315Y13236D02*
Y19929D01*
X207953Y19634D02*
X210315Y19929D01*
X207953Y22980D02*
X210315Y22685D01*
X207953Y19634D02*
Y22980D01*
X210315Y13236D02*
X249686Y13236D01*
X203686D02*
Y35677D01*
Y39023D02*
Y42763D01*
Y35677D02*
X206048Y35480D01*
X203686Y39023D02*
X206048Y39220D01*
Y35480D02*
Y39220D01*
X164315Y22685D02*
Y42763D01*
X203686D01*
X164315Y13236D02*
Y19929D01*
X161953Y19634D02*
X164315Y19929D01*
X161953Y22980D02*
X164315Y22685D01*
X161953Y19634D02*
Y22980D01*
X164315Y13236D02*
X203686Y13236D01*
X157686D02*
Y35677D01*
Y39023D02*
Y42763D01*
Y35677D02*
X160048Y35480D01*
X157686Y39023D02*
X160048Y39220D01*
Y35480D02*
Y39220D01*
X118315Y22685D02*
Y42763D01*
X157686D01*
X118315Y13236D02*
Y19929D01*
X115953Y19634D02*
X118315Y19929D01*
X115953Y22980D02*
X118315Y22685D01*
X115953Y19634D02*
Y22980D01*
X118315Y13236D02*
X157686Y13236D01*
X111686D02*
Y35677D01*
Y39023D02*
Y42763D01*
Y35677D02*
X114048Y35480D01*
X111686Y39023D02*
X114048Y39220D01*
Y35480D02*
Y39220D01*
X72316Y22685D02*
Y42763D01*
X111686D01*
X72316Y13236D02*
Y19929D01*
X69953Y19634D02*
X72316Y19929D01*
X69953Y22980D02*
X72316Y22685D01*
X69953Y19634D02*
Y22980D01*
X72316Y13236D02*
X111686Y13236D01*
X65686D02*
Y35677D01*
Y39023D02*
Y42763D01*
Y35677D02*
X68048Y35480D01*
X65686Y39023D02*
X68048Y39220D01*
Y35480D02*
Y39220D01*
X26316Y22685D02*
Y42763D01*
X65686D01*
X26316Y13236D02*
Y19929D01*
X23953Y19634D02*
X26316Y19929D01*
X23953Y22980D02*
X26316Y22685D01*
X23953Y19634D02*
Y22980D01*
X26316Y13236D02*
X65686Y13236D01*
X4314Y150323D02*
Y172764D01*
Y143237D02*
Y146977D01*
X1952Y150520D02*
X4314Y150323D01*
X1952Y146780D02*
X4314Y146977D01*
X1952Y146780D02*
Y150520D01*
X43685Y143237D02*
Y163315D01*
X4314Y143237D02*
X43685D01*
Y166071D02*
Y172764D01*
Y166071D02*
X46047Y166366D01*
X43685Y163315D02*
X46047Y163020D01*
Y166366D01*
X4314Y172764D02*
X43685Y172764D01*
X50157Y150551D02*
Y172992D01*
Y143465D02*
Y147205D01*
X47794Y150748D02*
X50157Y150551D01*
X47794Y147008D02*
X50157Y147205D01*
X47794Y147008D02*
Y150748D01*
X89527Y143465D02*
Y163543D01*
X50157Y143465D02*
X89527D01*
Y166299D02*
Y172992D01*
Y166299D02*
X91889Y166595D01*
X89527Y163543D02*
X91889Y163248D01*
Y166595D01*
X50157Y172992D02*
X89527Y172992D01*
X96157Y150551D02*
Y172992D01*
Y143465D02*
Y147205D01*
X93795Y150748D02*
X96157Y150551D01*
X93795Y147008D02*
X96157Y147205D01*
X93795Y147008D02*
Y150748D01*
X135527Y143465D02*
Y163543D01*
X96157Y143465D02*
X135527D01*
Y166299D02*
Y172992D01*
Y166299D02*
X137889Y166595D01*
X135527Y163543D02*
X137889Y163248D01*
Y166595D01*
X96157Y172992D02*
X135527Y172992D01*
X142157Y150551D02*
Y172992D01*
Y143465D02*
Y147205D01*
X139795Y150748D02*
X142157Y150551D01*
X139795Y147008D02*
X142157Y147205D01*
X139795Y147008D02*
Y150748D01*
X181527Y143465D02*
Y163543D01*
X142157Y143465D02*
X181527D01*
Y166299D02*
Y172992D01*
Y166299D02*
X183889Y166595D01*
X181527Y163543D02*
X183889Y163248D01*
Y166595D01*
X142157Y172992D02*
X181527Y172992D01*
X188157Y150551D02*
Y172992D01*
Y143465D02*
Y147205D01*
X185794Y150748D02*
X188157Y150551D01*
X185794Y147008D02*
X188157Y147205D01*
X185794Y147008D02*
Y150748D01*
X227527Y143465D02*
Y163543D01*
X188157Y143465D02*
X227527D01*
Y166299D02*
Y172992D01*
Y166299D02*
X229889Y166595D01*
X227527Y163543D02*
X229889Y163248D01*
Y166595D01*
X188157Y172992D02*
X227527Y172992D01*
X234157Y150551D02*
Y172992D01*
Y143465D02*
Y147205D01*
X231795Y150748D02*
X234157Y150551D01*
X231795Y147008D02*
X234157Y147205D01*
X231795Y147008D02*
Y150748D01*
X273527Y143465D02*
Y163543D01*
X234157Y143465D02*
X273527D01*
Y166299D02*
Y172992D01*
Y166299D02*
X275889Y166595D01*
X273527Y163543D02*
X275889Y163248D01*
Y166595D01*
X234157Y172992D02*
X273527Y172992D01*
X280157Y150551D02*
Y172992D01*
Y143465D02*
Y147205D01*
X277795Y150748D02*
X280157Y150551D01*
X277795Y147008D02*
X280157Y147205D01*
X277795Y147008D02*
Y150748D01*
X319527Y143465D02*
Y163543D01*
X280157Y143465D02*
X319527D01*
Y166299D02*
Y172992D01*
Y166299D02*
X321889Y166595D01*
X319527Y163543D02*
X321889Y163248D01*
Y166595D01*
X280157Y172992D02*
X319527Y172992D01*
X326157Y150551D02*
Y172992D01*
Y143465D02*
Y147205D01*
X323795Y150748D02*
X326157Y150551D01*
X323795Y147008D02*
X326157Y147205D01*
X323795Y147008D02*
Y150748D01*
X365527Y143465D02*
Y163543D01*
X326157Y143465D02*
X365527D01*
Y166299D02*
Y172992D01*
Y166299D02*
X367889Y166595D01*
X365527Y163543D02*
X367889Y163248D01*
Y166595D01*
X326157Y172992D02*
X365527Y172992D01*
X372314Y150323D02*
Y172764D01*
Y143237D02*
Y146977D01*
X369952Y150520D02*
X372314Y150323D01*
X369952Y146780D02*
X372314Y146977D01*
X369952Y146780D02*
Y150520D01*
X411685Y143237D02*
Y163315D01*
X372314Y143237D02*
X411685D01*
Y166071D02*
Y172764D01*
Y166071D02*
X414047Y166366D01*
X411685Y163315D02*
X414047Y163020D01*
Y166366D01*
X372314Y172764D02*
X411685Y172764D01*
X418157Y150551D02*
Y172992D01*
Y143465D02*
Y147205D01*
X415795Y150748D02*
X418157Y150551D01*
X415795Y147008D02*
X418157Y147205D01*
X415795Y147008D02*
Y150748D01*
X457527Y143465D02*
Y163543D01*
X418157Y143465D02*
X457527D01*
Y166299D02*
Y172992D01*
Y166299D02*
X459889Y166595D01*
X457527Y163543D02*
X459889Y163248D01*
Y166595D01*
X418157Y172992D02*
X457527Y172992D01*
D11*
X294370Y71732D02*
Y113858D01*
X168780Y71732D02*
Y113858D01*
Y71732D02*
X294370D01*
X168780Y113858D02*
X294370D01*
D12*
X80000Y182000D02*
Y186000D01*
X126000Y182000D02*
Y186000D01*
X80000Y184000D02*
X126000D01*
X347000Y99000D02*
X349624D01*
X348312D01*
Y95064D01*
X353560Y98344D02*
X352904Y99000D01*
X351592D01*
X350936Y98344D01*
Y97688D01*
X351592Y97032D01*
X352904D01*
X353560Y96376D01*
Y95720D01*
X352904Y95064D01*
X351592D01*
X350936Y95720D01*
X354872Y95064D02*
X357495Y97688D01*
X358807Y99000D02*
X361431D01*
X360119D01*
Y95064D01*
X365367Y98344D02*
X364711Y99000D01*
X363399D01*
X362743Y98344D01*
Y97688D01*
X363399Y97032D01*
X364711D01*
X365367Y96376D01*
Y95720D01*
X364711Y95064D01*
X363399D01*
X362743Y95720D01*
X370614Y93752D02*
Y97688D01*
X372582D01*
X373238Y97032D01*
Y95720D01*
X372582Y95064D01*
X370614D01*
X374550Y97688D02*
Y95064D01*
Y96376D01*
X375206Y97032D01*
X375862Y97688D01*
X376518D01*
X379142Y95064D02*
X380454D01*
X381110Y95720D01*
Y97032D01*
X380454Y97688D01*
X379142D01*
X378486Y97032D01*
Y95720D01*
X379142Y95064D01*
X383078Y98344D02*
Y97688D01*
X382422D01*
X383734D01*
X383078D01*
Y95720D01*
X383734Y95064D01*
X387669D02*
X386357D01*
X385701Y95720D01*
Y97032D01*
X386357Y97688D01*
X387669D01*
X388325Y97032D01*
Y96376D01*
X385701D01*
X392261Y97688D02*
X390293D01*
X389637Y97032D01*
Y95720D01*
X390293Y95064D01*
X392261D01*
X394229Y98344D02*
Y97688D01*
X393573D01*
X394885D01*
X394229D01*
Y95720D01*
X394885Y95064D01*
X398821D02*
X397509D01*
X396853Y95720D01*
Y97032D01*
X397509Y97688D01*
X398821D01*
X399477Y97032D01*
Y96376D01*
X396853D01*
X403412Y99000D02*
Y95064D01*
X401444D01*
X400788Y95720D01*
Y97032D01*
X401444Y97688D01*
X403412D01*
X408660Y99000D02*
Y95064D01*
X410628D01*
X411284Y95720D01*
Y96376D01*
Y97032D01*
X410628Y97688D01*
X408660D01*
X412596D02*
Y95720D01*
X413252Y95064D01*
X415219D01*
Y94408D01*
X414564Y93752D01*
X413908D01*
X415219Y95064D02*
Y97688D01*
X421123Y95064D02*
Y98344D01*
Y97032D01*
X420467D01*
X421779D01*
X421123D01*
Y98344D01*
X421779Y99000D01*
X423747Y97688D02*
Y95720D01*
X424403Y95064D01*
X426371D01*
Y97688D01*
X427683Y95064D02*
X429650D01*
X430306Y95720D01*
X429650Y96376D01*
X428339D01*
X427683Y97032D01*
X428339Y97688D01*
X430306D01*
X431618Y95064D02*
X432930D01*
X432274D01*
Y97688D01*
X431618D01*
X434898Y95064D02*
Y97688D01*
X436866D01*
X437522Y97032D01*
Y95064D01*
X440146Y93752D02*
X440802D01*
X441458Y94408D01*
Y97688D01*
X439490D01*
X438834Y97032D01*
Y95720D01*
X439490Y95064D01*
X441458D01*
X348312Y86629D02*
X347000Y87941D01*
Y89253D01*
X348312Y90565D01*
X350280Y87285D02*
X350936Y86629D01*
X352248D01*
X352904Y87285D01*
Y89909D01*
X352248Y90565D01*
X350936D01*
X350280Y89909D01*
Y89253D01*
X350936Y88597D01*
X352904D01*
X354216Y86629D02*
Y87285D01*
X354872D01*
Y86629D01*
X354216D01*
X360119Y90565D02*
X358807Y89909D01*
X357495Y88597D01*
Y87285D01*
X358151Y86629D01*
X359463D01*
X360119Y87285D01*
Y87941D01*
X359463Y88597D01*
X357495D01*
X365367Y86629D02*
Y89253D01*
X366023D01*
X366679Y88597D01*
Y86629D01*
Y88597D01*
X367335Y89253D01*
X367991Y88597D01*
Y86629D01*
X369303D02*
Y89253D01*
X369958D01*
X370614Y88597D01*
Y86629D01*
Y88597D01*
X371270Y89253D01*
X371926Y88597D01*
Y86629D01*
X377174D02*
X379142D01*
X379798Y87285D01*
X379142Y87941D01*
X377830D01*
X377174Y88597D01*
X377830Y89253D01*
X379798D01*
X381110Y85318D02*
Y89253D01*
X383078D01*
X383734Y88597D01*
Y87285D01*
X383078Y86629D01*
X381110D01*
X385701Y89253D02*
X387013D01*
X387669Y88597D01*
Y86629D01*
X385701D01*
X385046Y87285D01*
X385701Y87941D01*
X387669D01*
X391605Y89253D02*
X389637D01*
X388981Y88597D01*
Y87285D01*
X389637Y86629D01*
X391605D01*
X392917D02*
X394229D01*
X393573D01*
Y89253D01*
X392917D01*
X396197Y86629D02*
Y89253D01*
X398165D01*
X398821Y88597D01*
Y86629D01*
X401444Y85318D02*
X402100D01*
X402756Y85974D01*
Y89253D01*
X400788D01*
X400133Y88597D01*
Y87285D01*
X400788Y86629D01*
X402756D01*
X408004D02*
Y89253D01*
X409972D01*
X410628Y88597D01*
Y86629D01*
X412596D02*
X413908D01*
X414564Y87285D01*
Y88597D01*
X413908Y89253D01*
X412596D01*
X411940Y88597D01*
Y87285D01*
X412596Y86629D01*
X416531Y89909D02*
Y89253D01*
X415875D01*
X417187D01*
X416531D01*
Y87285D01*
X417187Y86629D01*
X423091Y89253D02*
Y86629D01*
Y87941D01*
X423747Y88597D01*
X424403Y89253D01*
X425059D01*
X428995Y86629D02*
X427683D01*
X427027Y87285D01*
Y88597D01*
X427683Y89253D01*
X428995D01*
X429650Y88597D01*
Y87941D01*
X427027D01*
X433586Y85318D02*
Y89253D01*
X431618D01*
X430962Y88597D01*
Y87285D01*
X431618Y86629D01*
X433586D01*
X434898Y89253D02*
Y87285D01*
X435554Y86629D01*
X437522D01*
Y89253D01*
X438834Y86629D02*
X440146D01*
X439490D01*
Y89253D01*
X438834D01*
X442114D02*
Y86629D01*
Y87941D01*
X442770Y88597D01*
X443426Y89253D01*
X444082D01*
X448017Y86629D02*
X446705D01*
X446049Y87285D01*
Y88597D01*
X446705Y89253D01*
X448017D01*
X448673Y88597D01*
Y87941D01*
X446049D01*
X452609Y90565D02*
Y86629D01*
X450641D01*
X449985Y87285D01*
Y88597D01*
X450641Y89253D01*
X452609D01*
X453921Y86629D02*
X455233Y87941D01*
Y89253D01*
X453921Y90565D01*
X210532Y129995D02*
Y128028D01*
X212008D01*
Y129011D01*
Y128028D01*
X213484D01*
Y130979D02*
Y131963D01*
Y131471D01*
X210532D01*
X211024Y130979D01*
Y133439D02*
X210532Y133931D01*
Y134915D01*
X211024Y135407D01*
X212992D01*
X213484Y134915D01*
Y133931D01*
X212992Y133439D01*
X211024D01*
X310999Y9499D02*
X310500Y9999D01*
X309500D01*
X309000Y9499D01*
Y7500D01*
X309500Y7000D01*
X310500D01*
X310999Y7500D01*
X311999Y7000D02*
X312999D01*
X312499D01*
Y9999D01*
X311999Y9499D01*
X316498Y9999D02*
X315498Y9499D01*
X314498Y8500D01*
Y7500D01*
X314998Y7000D01*
X315998D01*
X316498Y7500D01*
Y8000D01*
X315998Y8500D01*
X314498D01*
X356999Y9499D02*
X356500Y9999D01*
X355500D01*
X355000Y9499D01*
Y7500D01*
X355500Y7000D01*
X356500D01*
X356999Y7500D01*
X357999Y7000D02*
X358999D01*
X358499D01*
Y9999D01*
X357999Y9499D01*
X360498D02*
X360998Y9999D01*
X361998D01*
X362498Y9499D01*
Y8999D01*
X361998Y8500D01*
X362498Y8000D01*
Y7500D01*
X361998Y7000D01*
X360998D01*
X360498Y7500D01*
Y8000D01*
X360998Y8500D01*
X360498Y8999D01*
Y9499D01*
X360998Y8500D02*
X361998D01*
X400999Y9499D02*
X400499Y9999D01*
X399500D01*
X399000Y9499D01*
Y7500D01*
X399500Y7000D01*
X400499D01*
X400999Y7500D01*
X403998Y7000D02*
X401999D01*
X403998Y8999D01*
Y9499D01*
X403499Y9999D01*
X402499D01*
X401999Y9499D01*
X404998D02*
X405498Y9999D01*
X406498D01*
X406997Y9499D01*
Y7500D01*
X406498Y7000D01*
X405498D01*
X404998Y7500D01*
Y9499D01*
X398999Y179499D02*
X398499Y179999D01*
X397500D01*
X397000Y179499D01*
Y177500D01*
X397500Y177000D01*
X398499D01*
X398999Y177500D01*
X399999Y177000D02*
X400999D01*
X400499D01*
Y179999D01*
X399999Y179499D01*
X402498Y177500D02*
X402998Y177000D01*
X403998D01*
X404498Y177500D01*
Y179499D01*
X403998Y179999D01*
X402998D01*
X402498Y179499D01*
Y178999D01*
X402998Y178499D01*
X404498D01*
X354999Y179499D02*
X354500Y179999D01*
X353500D01*
X353000Y179499D01*
Y177500D01*
X353500Y177000D01*
X354500D01*
X354999Y177500D01*
X355999Y177000D02*
X356999D01*
X356499D01*
Y179999D01*
X355999Y179499D01*
X358498Y179999D02*
X360498D01*
Y179499D01*
X358498Y177500D01*
Y177000D01*
X306999Y179499D02*
X306500Y179999D01*
X305500D01*
X305000Y179499D01*
Y177500D01*
X305500Y177000D01*
X306500D01*
X306999Y177500D01*
X307999Y177000D02*
X308999D01*
X308499D01*
Y179999D01*
X307999Y179499D01*
X312498Y179999D02*
X310498D01*
Y178499D01*
X311498Y178999D01*
X311998D01*
X312498Y178499D01*
Y177500D01*
X311998Y177000D01*
X310998D01*
X310498Y177500D01*
X264999Y9499D02*
X264499Y9999D01*
X263500D01*
X263000Y9499D01*
Y7500D01*
X263500Y7000D01*
X264499D01*
X264999Y7500D01*
X265999Y7000D02*
X266999D01*
X266499D01*
Y9999D01*
X265999Y9499D01*
X269998Y7000D02*
Y9999D01*
X268498Y8500D01*
X270498D01*
X260999Y179499D02*
X260500Y179999D01*
X259500D01*
X259000Y179499D01*
Y177500D01*
X259500Y177000D01*
X260500D01*
X260999Y177500D01*
X261999Y177000D02*
X262999D01*
X262499D01*
Y179999D01*
X261999Y179499D01*
X264498D02*
X264998Y179999D01*
X265998D01*
X266498Y179499D01*
Y178999D01*
X265998Y178499D01*
X265498D01*
X265998D01*
X266498Y178000D01*
Y177500D01*
X265998Y177000D01*
X264998D01*
X264498Y177500D01*
X218999Y9499D02*
X218499Y9999D01*
X217500D01*
X217000Y9499D01*
Y7500D01*
X217500Y7000D01*
X218499D01*
X218999Y7500D01*
X219999D02*
X220499Y7000D01*
X221498D01*
X221998Y7500D01*
Y9499D01*
X221498Y9999D01*
X220499D01*
X219999Y9499D01*
Y8999D01*
X220499Y8500D01*
X221998D01*
X222998D02*
X224997D01*
X225997Y7000D02*
X226997D01*
X226497D01*
Y9999D01*
X225997Y9499D01*
X228496D02*
X228996Y9999D01*
X229996D01*
X230496Y9499D01*
Y8999D01*
X229996Y8500D01*
X229496D01*
X229996D01*
X230496Y8000D01*
Y7500D01*
X229996Y7000D01*
X228996D01*
X228496Y7500D01*
X231495Y8500D02*
X233495D01*
X210999Y179499D02*
X210500Y179999D01*
X209500D01*
X209000Y179499D01*
Y177500D01*
X209500Y177000D01*
X210500D01*
X210999Y177500D01*
X211999Y179499D02*
X212499Y179999D01*
X213498D01*
X213998Y179499D01*
Y178999D01*
X213498Y178499D01*
X213998Y178000D01*
Y177500D01*
X213498Y177000D01*
X212499D01*
X211999Y177500D01*
Y178000D01*
X212499Y178499D01*
X211999Y178999D01*
Y179499D01*
X212499Y178499D02*
X213498D01*
X172999Y9499D02*
X172500Y9999D01*
X171500D01*
X171000Y9499D01*
Y7500D01*
X171500Y7000D01*
X172500D01*
X172999Y7500D01*
X173999Y9999D02*
X175998D01*
Y9499D01*
X173999Y7500D01*
Y7000D01*
X436999Y179499D02*
X436500Y179999D01*
X435500D01*
X435000Y179499D01*
Y177500D01*
X435500Y177000D01*
X436500D01*
X436999Y177500D01*
X439998Y177000D02*
X437999D01*
X439998Y178999D01*
Y179499D01*
X439499Y179999D01*
X438499D01*
X437999Y179499D01*
X440998Y177000D02*
X441998D01*
X441498D01*
Y179999D01*
X440998Y179499D01*
X170999D02*
X170500Y179999D01*
X169500D01*
X169000Y179499D01*
Y177500D01*
X169500Y177000D01*
X170500D01*
X170999Y177500D01*
X173998Y179999D02*
X172999Y179499D01*
X171999Y178499D01*
Y177500D01*
X172499Y177000D01*
X173499D01*
X173998Y177500D01*
Y178000D01*
X173499Y178499D01*
X171999D01*
X124999Y179499D02*
X124499Y179999D01*
X123500D01*
X123000Y179499D01*
Y177500D01*
X123500Y177000D01*
X124499D01*
X124999Y177500D01*
X127499Y177000D02*
Y179999D01*
X125999Y178499D01*
X127998D01*
X78999Y179499D02*
X78500Y179999D01*
X77500D01*
X77000Y179499D01*
Y177500D01*
X77500Y177000D01*
X78500D01*
X78999Y177500D01*
X81998Y177000D02*
X79999D01*
X81998Y178999D01*
Y179499D01*
X81499Y179999D01*
X80499D01*
X79999Y179499D01*
X32999D02*
X32500Y179999D01*
X31500D01*
X31000Y179499D01*
Y177500D01*
X31500Y177000D01*
X32500D01*
X32999Y177500D01*
X33999Y177000D02*
X34999D01*
X34499D01*
Y179999D01*
X33999Y179499D01*
X36498Y178499D02*
X38498D01*
X126999Y9499D02*
X126499Y9999D01*
X125500D01*
X125000Y9499D01*
Y7500D01*
X125500Y7000D01*
X126499D01*
X126999Y7500D01*
X129998Y9999D02*
X127999D01*
Y8500D01*
X128999Y8999D01*
X129499D01*
X129998Y8500D01*
Y7500D01*
X129499Y7000D01*
X128499D01*
X127999Y7500D01*
X80999Y9499D02*
X80500Y9999D01*
X79500D01*
X79000Y9499D01*
Y7500D01*
X79500Y7000D01*
X80500D01*
X80999Y7500D01*
X81999Y9499D02*
X82499Y9999D01*
X83499D01*
X83998Y9499D01*
Y8999D01*
X83499Y8500D01*
X82999D01*
X83499D01*
X83998Y8000D01*
Y7500D01*
X83499Y7000D01*
X82499D01*
X81999Y7500D01*
X32999Y9499D02*
X32500Y9999D01*
X31500D01*
X31000Y9499D01*
Y7500D01*
X31500Y7000D01*
X32500D01*
X32999Y7500D01*
X33999Y7000D02*
X34999D01*
X34499D01*
Y9999D01*
X33999Y9499D01*
X26048Y130968D02*
Y129000D01*
X27524D01*
Y129984D01*
Y129000D01*
X29000D01*
Y133920D02*
Y131952D01*
X27032Y133920D01*
X26540D01*
X26048Y133428D01*
Y132444D01*
X26540Y131952D01*
X87000Y186837D02*
X88837D01*
X87918D01*
Y192347D01*
X87000Y191428D01*
X91592Y186837D02*
X93428D01*
X92510D01*
Y192347D01*
X91592Y191428D01*
X96183Y186837D02*
Y187755D01*
X97102D01*
Y186837D01*
X96183D01*
X104448Y192347D02*
X102612Y191428D01*
X100775Y189592D01*
Y187755D01*
X101693Y186837D01*
X103530D01*
X104448Y187755D01*
Y188673D01*
X103530Y189592D01*
X100775D01*
X111795Y186837D02*
Y190510D01*
X112714D01*
X113632Y189592D01*
Y186837D01*
Y189592D01*
X114550Y190510D01*
X115469Y189592D01*
Y186837D01*
X117305D02*
Y190510D01*
X118224D01*
X119142Y189592D01*
Y186837D01*
Y189592D01*
X120060Y190510D01*
X120978Y189592D01*
Y186837D01*
X128325Y192347D02*
X131999D01*
X130162D01*
Y186837D01*
X137509Y191428D02*
X136590Y192347D01*
X134754D01*
X133835Y191428D01*
Y190510D01*
X134754Y189592D01*
X136590D01*
X137509Y188673D01*
Y187755D01*
X136590Y186837D01*
X134754D01*
X133835Y187755D01*
X139345Y186837D02*
X143019Y190510D01*
X144855Y192347D02*
X148529D01*
X146692D01*
Y186837D01*
X154039Y191428D02*
X153120Y192347D01*
X151284D01*
X150365Y191428D01*
Y190510D01*
X151284Y189592D01*
X153120D01*
X154039Y188673D01*
Y187755D01*
X153120Y186837D01*
X151284D01*
X150365Y187755D01*
X161385Y186837D02*
X164140D01*
X165059Y187755D01*
X164140Y188673D01*
X162304D01*
X161385Y189592D01*
X162304Y190510D01*
X165059D01*
X166895Y185000D02*
Y190510D01*
X169650D01*
X170569Y189592D01*
Y187755D01*
X169650Y186837D01*
X166895D01*
X173324Y190510D02*
X175161D01*
X176079Y189592D01*
Y186837D01*
X173324D01*
X172406Y187755D01*
X173324Y188673D01*
X176079D01*
X181589Y190510D02*
X178834D01*
X177916Y189592D01*
Y187755D01*
X178834Y186837D01*
X181589D01*
X183425D02*
X185262D01*
X184344D01*
Y190510D01*
X183425D01*
X188017Y186837D02*
Y190510D01*
X190772D01*
X191691Y189592D01*
Y186837D01*
X195364Y185000D02*
X196282D01*
X197201Y185918D01*
Y190510D01*
X194446D01*
X193527Y189592D01*
Y187755D01*
X194446Y186837D01*
X197201D01*
X206384D02*
X204547Y188673D01*
Y190510D01*
X206384Y192347D01*
X209139Y186837D02*
Y190510D01*
X210057D01*
X210976Y189592D01*
Y186837D01*
Y189592D01*
X211894Y190510D01*
X212812Y189592D01*
Y186837D01*
X214649D02*
X216486D01*
X215567D01*
Y190510D01*
X214649D01*
X219241Y186837D02*
Y190510D01*
X221996D01*
X222914Y189592D01*
Y186837D01*
X230261Y187755D02*
X231179Y186837D01*
X233016D01*
X233934Y187755D01*
Y191428D01*
X233016Y192347D01*
X231179D01*
X230261Y191428D01*
Y190510D01*
X231179Y189592D01*
X233934D01*
X235771Y186837D02*
Y187755D01*
X236689D01*
Y186837D01*
X235771D01*
X244036Y192347D02*
X242199Y191428D01*
X240363Y189592D01*
Y187755D01*
X241281Y186837D01*
X243117D01*
X244036Y187755D01*
Y188673D01*
X243117Y189592D01*
X240363D01*
X251382Y186837D02*
Y190510D01*
X252301D01*
X253219Y189592D01*
Y186837D01*
Y189592D01*
X254138Y190510D01*
X255056Y189592D01*
Y186837D01*
X256893D02*
Y190510D01*
X257811D01*
X258729Y189592D01*
Y186837D01*
Y189592D01*
X259648Y190510D01*
X260566Y189592D01*
Y186837D01*
X262403D02*
X264239Y188673D01*
Y190510D01*
X262403Y192347D01*
X163548Y129995D02*
Y128028D01*
X165024D01*
Y129011D01*
Y128028D01*
X166500D01*
X164040Y130979D02*
X163548Y131471D01*
Y132455D01*
X164040Y132947D01*
X164532D01*
X165024Y132455D01*
X165516Y132947D01*
X166008D01*
X166500Y132455D01*
Y131471D01*
X166008Y130979D01*
X165516D01*
X165024Y131471D01*
X164532Y130979D01*
X164040D01*
X165024Y131471D02*
Y132455D01*
X347548Y129995D02*
Y128028D01*
X349024D01*
Y129011D01*
Y128028D01*
X350500D01*
Y130979D02*
Y131963D01*
Y131471D01*
X347548D01*
X348040Y130979D01*
X347548Y133439D02*
Y135407D01*
X348040D01*
X350008Y133439D01*
X350500D01*
X44452Y56005D02*
Y57972D01*
X42976D01*
Y56989D01*
Y57972D01*
X41500D01*
Y55021D02*
Y54037D01*
Y54529D01*
X44452D01*
X43960Y55021D01*
X213952Y55032D02*
Y57000D01*
X212476D01*
Y56016D01*
Y57000D01*
X211000D01*
X211492Y54048D02*
X211000Y53556D01*
Y52572D01*
X211492Y52080D01*
X213460D01*
X213952Y52572D01*
Y53556D01*
X213460Y54048D01*
X212968D01*
X212476Y53556D01*
Y52080D01*
X412452Y56005D02*
Y57972D01*
X410976D01*
Y56989D01*
Y57972D01*
X409500D01*
Y55021D02*
Y54037D01*
Y54529D01*
X412452D01*
X411960Y55021D01*
Y52561D02*
X412452Y52069D01*
Y51085D01*
X411960Y50593D01*
X411468D01*
X410976Y51085D01*
X410484Y50593D01*
X409992D01*
X409500Y51085D01*
Y52069D01*
X409992Y52561D01*
X410484D01*
X410976Y52069D01*
X411468Y52561D01*
X411960D01*
X410976Y52069D02*
Y51085D01*
X71548Y129995D02*
Y128028D01*
X73024D01*
Y129011D01*
Y128028D01*
X74500D01*
Y132455D02*
X71548D01*
X73024Y130979D01*
Y132947D01*
X117548Y129995D02*
Y128028D01*
X119024D01*
Y129011D01*
Y128028D01*
X120500D01*
X117548Y132947D02*
X118040Y131963D01*
X119024Y130979D01*
X120008D01*
X120500Y131471D01*
Y132455D01*
X120008Y132947D01*
X119516D01*
X119024Y132455D01*
Y130979D01*
X255548Y129995D02*
Y128028D01*
X257024D01*
Y129011D01*
Y128028D01*
X258500D01*
Y130979D02*
Y131963D01*
Y131471D01*
X255548D01*
X256040Y130979D01*
Y133439D02*
X255548Y133931D01*
Y134915D01*
X256040Y135407D01*
X256532D01*
X257024Y134915D01*
Y134423D01*
Y134915D01*
X257516Y135407D01*
X258008D01*
X258500Y134915D01*
Y133931D01*
X258008Y133439D01*
X439548Y129995D02*
Y128028D01*
X441024D01*
Y129011D01*
Y128028D01*
X442500D01*
Y132947D02*
Y130979D01*
X440532Y132947D01*
X440040D01*
X439548Y132455D01*
Y131471D01*
X440040Y130979D01*
Y133931D02*
X439548Y134423D01*
Y135407D01*
X440040Y135899D01*
X442008D01*
X442500Y135407D01*
Y134423D01*
X442008Y133931D01*
X440040D01*
X136452Y56005D02*
Y57972D01*
X134976D01*
Y56989D01*
Y57972D01*
X133500D01*
X136452Y53053D02*
Y55021D01*
X134976D01*
X135468Y54037D01*
Y53545D01*
X134976Y53053D01*
X133992D01*
X133500Y53545D01*
Y54529D01*
X133992Y55021D01*
X182452Y56005D02*
Y57972D01*
X180976D01*
Y56989D01*
Y57972D01*
X179500D01*
X182452Y55021D02*
Y53053D01*
X181960D01*
X179992Y55021D01*
X179500D01*
X274452Y56005D02*
Y57972D01*
X272976D01*
Y56989D01*
Y57972D01*
X271500D01*
Y55021D02*
Y54037D01*
Y54529D01*
X274452D01*
X273960Y55021D01*
X271500Y50593D02*
Y52561D01*
X273468Y50593D01*
X273960D01*
X274452Y51085D01*
Y52069D01*
X273960Y52561D01*
X320452Y56005D02*
Y57972D01*
X318976D01*
Y56989D01*
Y57972D01*
X317500D01*
Y55021D02*
Y54037D01*
Y54529D01*
X320452D01*
X319960Y55021D01*
X317500Y51085D02*
X320452D01*
X318976Y52561D01*
Y50593D01*
X366452Y56005D02*
Y57972D01*
X364976D01*
Y56989D01*
Y57972D01*
X363500D01*
Y55021D02*
Y54037D01*
Y54529D01*
X366452D01*
X365960Y55021D01*
X366452Y50593D02*
X365960Y51577D01*
X364976Y52561D01*
X363992D01*
X363500Y52069D01*
Y51085D01*
X363992Y50593D01*
X364484D01*
X364976Y51085D01*
Y52561D01*
X393548Y129995D02*
Y128028D01*
X395024D01*
Y129011D01*
Y128028D01*
X396500D01*
Y130979D02*
Y131963D01*
Y131471D01*
X393548D01*
X394040Y130979D01*
X396008Y133439D02*
X396500Y133931D01*
Y134915D01*
X396008Y135407D01*
X394040D01*
X393548Y134915D01*
Y133931D01*
X394040Y133439D01*
X394532D01*
X395024Y133931D01*
Y135407D01*
X301548Y129995D02*
Y128028D01*
X303024D01*
Y129011D01*
Y128028D01*
X304500D01*
Y130979D02*
Y131963D01*
Y131471D01*
X301548D01*
X302040Y130979D01*
X301548Y135407D02*
Y133439D01*
X303024D01*
X302532Y134423D01*
Y134915D01*
X303024Y135407D01*
X304008D01*
X304500Y134915D01*
Y133931D01*
X304008Y133439D01*
X90452Y56005D02*
Y57972D01*
X88976D01*
Y56989D01*
Y57972D01*
X87500D01*
X89960Y55021D02*
X90452Y54529D01*
Y53545D01*
X89960Y53053D01*
X89468D01*
X88976Y53545D01*
Y54037D01*
Y53545D01*
X88484Y53053D01*
X87992D01*
X87500Y53545D01*
Y54529D01*
X87992Y55021D01*
X172699Y123898D02*
X170699D01*
X171699D01*
Y118900D01*
X170699Y117900D01*
X169700D01*
X168700Y118900D01*
X178697Y117900D02*
X174698D01*
X178697Y121899D01*
Y122898D01*
X177697Y123898D01*
X175698D01*
X174698Y122898D01*
X180696D02*
X181696Y123898D01*
X183695D01*
X184695Y122898D01*
Y118900D01*
X183695Y117900D01*
X181696D01*
X180696Y118900D01*
Y122898D01*
X421899Y140826D02*
X419899D01*
X420899D01*
Y135828D01*
X419899Y134828D01*
X418900D01*
X417900Y135828D01*
X423898Y134828D02*
X425897D01*
X424898D01*
Y140826D01*
X423898Y139827D01*
X428896Y135828D02*
X429896Y134828D01*
X431895D01*
X432895Y135828D01*
Y139827D01*
X431895Y140826D01*
X429896D01*
X428896Y139827D01*
Y138827D01*
X429896Y137827D01*
X432895D01*
X423899Y52398D02*
X421899D01*
X422899D01*
Y47400D01*
X421899Y46400D01*
X420900D01*
X419900Y47400D01*
X425898Y46400D02*
X427897D01*
X426898D01*
Y52398D01*
X425898Y51398D01*
X430896D02*
X431896Y52398D01*
X433895D01*
X434895Y51398D01*
Y50399D01*
X433895Y49399D01*
X434895Y48399D01*
Y47400D01*
X433895Y46400D01*
X431896D01*
X430896Y47400D01*
Y48399D01*
X431896Y49399D01*
X430896Y50399D01*
Y51398D01*
X431896Y49399D02*
X433895D01*
X376099Y140598D02*
X374099D01*
X375099D01*
Y135600D01*
X374099Y134600D01*
X373100D01*
X372100Y135600D01*
X378098Y134600D02*
X380097D01*
X379098D01*
Y140598D01*
X378098Y139598D01*
X383096Y140598D02*
X387095D01*
Y139598D01*
X383096Y135600D01*
Y134600D01*
X378099Y52626D02*
X376099D01*
X377099D01*
Y47627D01*
X376099Y46628D01*
X375100D01*
X374100Y47627D01*
X380098Y46628D02*
X382097D01*
X381098D01*
Y52626D01*
X380098Y51626D01*
X389095Y52626D02*
X387096Y51626D01*
X385096Y49626D01*
Y47627D01*
X386096Y46628D01*
X388095D01*
X389095Y47627D01*
Y48627D01*
X388095Y49626D01*
X385096D01*
X329899Y140898D02*
X327899D01*
X328899D01*
Y135900D01*
X327899Y134900D01*
X326900D01*
X325900Y135900D01*
X331898Y134900D02*
X333897D01*
X332898D01*
Y140898D01*
X331898Y139898D01*
X340895Y140898D02*
X336896D01*
Y137899D01*
X338896Y138899D01*
X339896D01*
X340895Y137899D01*
Y135900D01*
X339896Y134900D01*
X337896D01*
X336896Y135900D01*
X332099Y52598D02*
X330099D01*
X331099D01*
Y47600D01*
X330099Y46600D01*
X329100D01*
X328100Y47600D01*
X334098Y46600D02*
X336097D01*
X335098D01*
Y52598D01*
X334098Y51598D01*
X342095Y46600D02*
Y52598D01*
X339096Y49599D01*
X343095D01*
X283899Y140898D02*
X281899D01*
X282899D01*
Y135900D01*
X281899Y134900D01*
X280900D01*
X279900Y135900D01*
X285898Y134900D02*
X287897D01*
X286898D01*
Y140898D01*
X285898Y139898D01*
X290896D02*
X291896Y140898D01*
X293896D01*
X294895Y139898D01*
Y138899D01*
X293896Y137899D01*
X292896D01*
X293896D01*
X294895Y136899D01*
Y135900D01*
X293896Y134900D01*
X291896D01*
X290896Y135900D01*
X286099Y52598D02*
X284099D01*
X285099D01*
Y47600D01*
X284099Y46600D01*
X283100D01*
X282100Y47600D01*
X288098Y46600D02*
X290097D01*
X289098D01*
Y52598D01*
X288098Y51598D01*
X297095Y46600D02*
X293096D01*
X297095Y50599D01*
Y51598D01*
X296095Y52598D01*
X294096D01*
X293096Y51598D01*
X237899Y140898D02*
X235899D01*
X236899D01*
Y135900D01*
X235899Y134900D01*
X234900D01*
X233900Y135900D01*
X239898Y134900D02*
X241897D01*
X240898D01*
Y140898D01*
X239898Y139898D01*
X244896Y134900D02*
X246896D01*
X245896D01*
Y140898D01*
X244896Y139898D01*
X234999Y55499D02*
Y57498D01*
Y56498D01*
X230001D01*
X229001Y57498D01*
Y58498D01*
X230001Y59498D01*
X229001Y53500D02*
Y51500D01*
Y52500D01*
X234999D01*
X233999Y53500D01*
Y48501D02*
X234999Y47501D01*
Y45502D01*
X233999Y44502D01*
X230001D01*
X229001Y45502D01*
Y47501D01*
X230001Y48501D01*
X233999D01*
X191899Y140883D02*
X189899D01*
X190899D01*
Y135885D01*
X189899Y134885D01*
X188900D01*
X187900Y135885D01*
X193898D02*
X194898Y134885D01*
X196897D01*
X197897Y135885D01*
Y139883D01*
X196897Y140883D01*
X194898D01*
X193898Y139883D01*
Y138884D01*
X194898Y137884D01*
X197897D01*
X194099Y52598D02*
X192099D01*
X193099D01*
Y47600D01*
X192099Y46600D01*
X191100D01*
X190100Y47600D01*
X196098Y51598D02*
X197098Y52598D01*
X199097D01*
X200097Y51598D01*
Y50599D01*
X199097Y49599D01*
X200097Y48599D01*
Y47600D01*
X199097Y46600D01*
X197098D01*
X196098Y47600D01*
Y48599D01*
X197098Y49599D01*
X196098Y50599D01*
Y51598D01*
X197098Y49599D02*
X199097D01*
X145000Y140999D02*
X143001D01*
X144001D01*
Y136001D01*
X143001Y135001D01*
X142001D01*
X141002Y136001D01*
X147000Y140999D02*
X150998D01*
Y139999D01*
X147000Y136001D01*
Y135001D01*
X148099Y52612D02*
X146099D01*
X147099D01*
Y47614D01*
X146099Y46614D01*
X145100D01*
X144100Y47614D01*
X154097Y52612D02*
X152097Y51613D01*
X150098Y49613D01*
Y47614D01*
X151098Y46614D01*
X153097D01*
X154097Y47614D01*
Y48614D01*
X153097Y49613D01*
X150098D01*
X99000Y140999D02*
X97001D01*
X98001D01*
Y136001D01*
X97001Y135001D01*
X96001D01*
X95002Y136001D01*
X104998Y140999D02*
X101000D01*
Y138000D01*
X102999Y139000D01*
X103999D01*
X104998Y138000D01*
Y136001D01*
X103999Y135001D01*
X101999D01*
X101000Y136001D01*
X102099Y52598D02*
X100099D01*
X101099D01*
Y47600D01*
X100099Y46600D01*
X99100D01*
X98100Y47600D01*
X107097Y46600D02*
Y52598D01*
X104098Y49599D01*
X108097D01*
X53000Y140999D02*
X51001D01*
X52001D01*
Y136001D01*
X51001Y135001D01*
X50001D01*
X49002Y136001D01*
X55000Y139999D02*
X55999Y140999D01*
X57999D01*
X58998Y139999D01*
Y139000D01*
X57999Y138000D01*
X56999D01*
X57999D01*
X58998Y137000D01*
Y136001D01*
X57999Y135001D01*
X55999D01*
X55000Y136001D01*
X57000Y52999D02*
X55001D01*
X56001D01*
Y48001D01*
X55001Y47001D01*
X54001D01*
X53002Y48001D01*
X62998Y47001D02*
X59000D01*
X62998Y51000D01*
Y51999D01*
X61999Y52999D01*
X59999D01*
X59000Y51999D01*
X8000Y140999D02*
X6001D01*
X7000D01*
Y136001D01*
X6001Y135001D01*
X5001D01*
X4001Y136001D01*
X9999Y135001D02*
X11999D01*
X10999D01*
Y140999D01*
X9999Y139999D01*
M02*
