G04*
G04 #@! TF.GenerationSoftware,Altium Limited,Altium Designer,20.1.14 (287)*
G04*
G04 Layer_Color=8388736*
%FSLAX25Y25*%
%MOIN*%
G70*
G04*
G04 #@! TF.SameCoordinates,283F559E-812C-43F7-8757-F5CE0260A4F6*
G04*
G04*
G04 #@! TF.FilePolarity,Negative*
G04*
G01*
G75*
%ADD14R,0.07208X0.04688*%
%ADD15C,0.07099*%
%ADD16R,0.05524X0.05524*%
%ADD17C,0.05524*%
%ADD18C,0.08477*%
%ADD19R,0.08477X0.08477*%
%ADD20C,0.16800*%
D14*
X172000Y129528D02*
D03*
Y140000D02*
D03*
X356000Y129528D02*
D03*
Y140000D02*
D03*
X36000Y56472D02*
D03*
Y46000D02*
D03*
X220000Y56472D02*
D03*
Y46000D02*
D03*
X404000Y56472D02*
D03*
Y46000D02*
D03*
X34000Y140000D02*
D03*
Y129528D02*
D03*
X80000D02*
D03*
Y140000D02*
D03*
X126000Y129528D02*
D03*
Y140000D02*
D03*
X218000Y129528D02*
D03*
Y140000D02*
D03*
X264000Y129528D02*
D03*
Y140000D02*
D03*
X448000Y129528D02*
D03*
Y140000D02*
D03*
X128000Y56472D02*
D03*
Y46000D02*
D03*
X174000Y56472D02*
D03*
Y46000D02*
D03*
X240000Y56472D02*
D03*
Y46000D02*
D03*
X266000Y56472D02*
D03*
Y46000D02*
D03*
X312000Y56472D02*
D03*
Y46000D02*
D03*
X358000Y56472D02*
D03*
Y46000D02*
D03*
X402000Y129528D02*
D03*
Y140000D02*
D03*
X310000Y129528D02*
D03*
Y140000D02*
D03*
X82000Y56472D02*
D03*
Y46000D02*
D03*
D15*
X287677Y109921D02*
D03*
D16*
X277244Y105591D02*
D03*
D17*
X269370D02*
D03*
X261496D02*
D03*
X253622D02*
D03*
X245748D02*
D03*
X237874D02*
D03*
X230000D02*
D03*
X222126D02*
D03*
X214252D02*
D03*
X206378D02*
D03*
X198504D02*
D03*
X190630D02*
D03*
X182756D02*
D03*
X277244Y80000D02*
D03*
X269370D02*
D03*
X261496D02*
D03*
X253622D02*
D03*
X245748D02*
D03*
X237874D02*
D03*
X230000D02*
D03*
X222126D02*
D03*
X214252D02*
D03*
X206378D02*
D03*
X198504D02*
D03*
X190630D02*
D03*
X182756D02*
D03*
D18*
X423685Y26000D02*
D03*
X377842Y26228D02*
D03*
X331842D02*
D03*
X285842D02*
D03*
X239843D02*
D03*
X193842D02*
D03*
X147843D02*
D03*
X101842D02*
D03*
X55843D02*
D03*
X14157Y159772D02*
D03*
X60000Y160000D02*
D03*
X106000D02*
D03*
X152000D02*
D03*
X198000D02*
D03*
X244000D02*
D03*
X290000D02*
D03*
X336000D02*
D03*
X382157Y159772D02*
D03*
X428000Y160000D02*
D03*
D19*
X404000Y26000D02*
D03*
X358157Y26228D02*
D03*
X312158D02*
D03*
X266158D02*
D03*
X220158D02*
D03*
X174158D02*
D03*
X128157D02*
D03*
X82157D02*
D03*
X36158D02*
D03*
X33843Y159772D02*
D03*
X79685Y160000D02*
D03*
X125685D02*
D03*
X171685D02*
D03*
X217685D02*
D03*
X263685D02*
D03*
X309685D02*
D03*
X355685D02*
D03*
X401842Y159772D02*
D03*
X447685Y160000D02*
D03*
D20*
X12000Y184000D02*
D03*
X450000D02*
D03*
X12000Y12000D02*
D03*
X450000D02*
D03*
M02*
