%FSTAX23Y23*%
%MOIN*%
%SFA1B1*%

%IPPOS*%
%ADD13R,0.070080X0.044880*%
%ADD23R,0.064960X0.064960*%
%ADD24C,0.064960*%
%ADD25C,0.076770*%
%ADD26R,0.076770X0.076770*%
%ADD27C,0.160000*%
%ADD28C,0.062990*%
%ADD29R,0.047240X0.047240*%
%ADD30C,0.047240*%
%LNtherms-1*%
%LPD*%
G54D13*
X01165Y00735D03*
Y0063D03*
X01965Y00735D03*
Y0063D03*
X02165Y00735D03*
Y0063D03*
X02365Y00735D03*
Y0063D03*
X02565Y00739D03*
Y00635D03*
X02765Y00735D03*
Y0063D03*
X02965Y00735D03*
Y0063D03*
X01465Y00735D03*
Y0063D03*
X01663Y00735D03*
Y0063D03*
X00165Y00739D03*
Y00635D03*
X00365Y00739D03*
Y00635D03*
X00565Y00735D03*
Y0063D03*
X00765Y00735D03*
Y0063D03*
X00965Y00735D03*
Y0063D03*
X02965Y01855D03*
Y0175D03*
X02765Y01859D03*
Y01755D03*
X02565Y01859D03*
Y01755D03*
X02365Y01859D03*
Y01755D03*
X02165Y01859D03*
Y01755D03*
X01965Y01855D03*
Y0175D03*
X01465Y01859D03*
Y01755D03*
X01665Y01859D03*
Y01755D03*
X01165Y01855D03*
Y0175D03*
X00965Y01855D03*
Y0175D03*
X00765Y01855D03*
Y0175D03*
X00565Y01855D03*
Y0175D03*
X00365Y01859D03*
Y01755D03*
X00165Y01855D03*
Y0175D03*
G54D23*
X01965Y00415D03*
X00165D03*
X01965Y02065D03*
X00165D03*
G54D24*
X02165Y00415D03*
X02365D03*
X02565D03*
X02765D03*
X02965D03*
X00365D03*
X00565D03*
X00765D03*
X00965D03*
X01165D03*
X02165Y02065D03*
X02365D03*
X02565D03*
X02765D03*
X02965D03*
X00365D03*
X00565D03*
X00765D03*
X00965D03*
X01165D03*
G54D25*
X01663Y00397D03*
X01466Y02082D03*
G54D26*
X01466Y00397D03*
X01663Y02082D03*
G54D27*
X0014Y0234D03*
X0299D03*
Y0014D03*
X0014D03*
G54D28*
X00952Y01046D03*
G54D29*
X01056Y0109D03*
G54D30*
X01135Y0109D03*
X01213D03*
X01292D03*
X01371D03*
X0145D03*
X01528D03*
X01607D03*
X01686D03*
X01765D03*
X01843D03*
X01922D03*
X02001D03*
X02079D03*
X01056Y01345D03*
X01135D03*
X01213D03*
X01292D03*
X01371D03*
X0145D03*
X01528D03*
X01607D03*
X01686D03*
X01765D03*
X01843D03*
X01922D03*
X02001D03*
X02079D03*
M02*