%FSTAX23Y23*%
%MOIN*%
%SFA1B1*%

%IPPOS*%
%ADD10C,0.007870*%
%ADD11C,0.005000*%
%ADD31C,0.003940*%
%LNtherms-1*%
%LPD*%
G54D10*
X01968Y006D02*
D01*
X01968Y006*
X01968Y006*
X01968Y006*
X01968Y00601*
X01968Y00601*
X01968Y00601*
X01968Y00601*
X01968Y00602*
X01968Y00602*
X01968Y00602*
X01967Y00602*
X01967Y00602*
X01967Y00603*
X01967Y00603*
X01966Y00603*
X01966Y00603*
X01966Y00603*
X01966Y00603*
X01965Y00603*
X01965Y00603*
X01965Y00603*
X01965Y00603*
X01964*
X01964Y00603*
X01964Y00603*
X01964Y00603*
X01963Y00603*
X01963Y00603*
X01963Y00603*
X01963Y00603*
X01962Y00603*
X01962Y00603*
X01962Y00602*
X01962Y00602*
X01961Y00602*
X01961Y00602*
X01961Y00602*
X01961Y00601*
X01961Y00601*
X01961Y00601*
X01961Y00601*
X01961Y006*
X01961Y006*
X01961Y006*
X01961Y006*
X01961Y00599*
X01961Y00599*
X01961Y00599*
X01961Y00598*
X01961Y00598*
X01961Y00598*
X01961Y00598*
X01961Y00597*
X01961Y00597*
X01961Y00597*
X01962Y00597*
X01962Y00597*
X01962Y00596*
X01962Y00596*
X01963Y00596*
X01963Y00596*
X01963Y00596*
X01963Y00596*
X01964Y00596*
X01964Y00596*
X01964Y00596*
X01964Y00596*
X01965*
X01965Y00596*
X01965Y00596*
X01965Y00596*
X01966Y00596*
X01966Y00596*
X01966Y00596*
X01966Y00596*
X01967Y00596*
X01967Y00596*
X01967Y00597*
X01967Y00597*
X01968Y00597*
X01968Y00597*
X01968Y00597*
X01968Y00598*
X01968Y00598*
X01968Y00598*
X01968Y00598*
X01968Y00599*
X01968Y00599*
X01968Y00599*
X01968Y006*
X00168D02*
D01*
X00168Y006*
X00168Y006*
X00168Y006*
X00168Y00601*
X00168Y00601*
X00168Y00601*
X00168Y00601*
X00168Y00602*
X00168Y00602*
X00168Y00602*
X00167Y00602*
X00167Y00602*
X00167Y00603*
X00167Y00603*
X00166Y00603*
X00166Y00603*
X00166Y00603*
X00166Y00603*
X00165Y00603*
X00165Y00603*
X00165Y00603*
X00165Y00603*
X00164*
X00164Y00603*
X00164Y00603*
X00164Y00603*
X00163Y00603*
X00163Y00603*
X00163Y00603*
X00163Y00603*
X00162Y00603*
X00162Y00603*
X00162Y00602*
X00162Y00602*
X00161Y00602*
X00161Y00602*
X00161Y00602*
X00161Y00601*
X00161Y00601*
X00161Y00601*
X00161Y00601*
X00161Y006*
X00161Y006*
X00161Y006*
X00161Y006*
X00161Y00599*
X00161Y00599*
X00161Y00599*
X00161Y00598*
X00161Y00598*
X00161Y00598*
X00161Y00598*
X00161Y00597*
X00161Y00597*
X00161Y00597*
X00162Y00597*
X00162Y00597*
X00162Y00596*
X00162Y00596*
X00163Y00596*
X00163Y00596*
X00163Y00596*
X00163Y00596*
X00164Y00596*
X00164Y00596*
X00164Y00596*
X00164Y00596*
X00165*
X00165Y00596*
X00165Y00596*
X00165Y00596*
X00166Y00596*
X00166Y00596*
X00166Y00596*
X00166Y00596*
X00167Y00596*
X00167Y00596*
X00167Y00597*
X00167Y00597*
X00168Y00597*
X00168Y00597*
X00168Y00597*
X00168Y00598*
X00168Y00598*
X00168Y00598*
X00168Y00598*
X00168Y00599*
X00168Y00599*
X00168Y00599*
X00168Y006*
X01968Y0225D02*
D01*
X01968Y0225*
X01968Y0225*
X01968Y0225*
X01968Y02251*
X01968Y02251*
X01968Y02251*
X01968Y02251*
X01968Y02252*
X01968Y02252*
X01968Y02252*
X01967Y02252*
X01967Y02252*
X01967Y02253*
X01967Y02253*
X01966Y02253*
X01966Y02253*
X01966Y02253*
X01966Y02253*
X01965Y02253*
X01965Y02253*
X01965Y02253*
X01965Y02253*
X01964*
X01964Y02253*
X01964Y02253*
X01964Y02253*
X01963Y02253*
X01963Y02253*
X01963Y02253*
X01963Y02253*
X01962Y02253*
X01962Y02253*
X01962Y02252*
X01962Y02252*
X01961Y02252*
X01961Y02252*
X01961Y02252*
X01961Y02251*
X01961Y02251*
X01961Y02251*
X01961Y02251*
X01961Y0225*
X01961Y0225*
X01961Y0225*
X01961Y0225*
X01961Y02249*
X01961Y02249*
X01961Y02249*
X01961Y02248*
X01961Y02248*
X01961Y02248*
X01961Y02248*
X01961Y02247*
X01961Y02247*
X01961Y02247*
X01962Y02247*
X01962Y02247*
X01962Y02246*
X01962Y02246*
X01963Y02246*
X01963Y02246*
X01963Y02246*
X01963Y02246*
X01964Y02246*
X01964Y02246*
X01964Y02246*
X01964Y02246*
X01965*
X01965Y02246*
X01965Y02246*
X01965Y02246*
X01966Y02246*
X01966Y02246*
X01966Y02246*
X01966Y02246*
X01967Y02246*
X01967Y02246*
X01967Y02247*
X01967Y02247*
X01968Y02247*
X01968Y02247*
X01968Y02247*
X01968Y02248*
X01968Y02248*
X01968Y02248*
X01968Y02248*
X01968Y02249*
X01968Y02249*
X01968Y02249*
X01968Y0225*
X00168D02*
D01*
X00168Y0225*
X00168Y0225*
X00168Y0225*
X00168Y02251*
X00168Y02251*
X00168Y02251*
X00168Y02251*
X00168Y02252*
X00168Y02252*
X00168Y02252*
X00167Y02252*
X00167Y02252*
X00167Y02253*
X00167Y02253*
X00166Y02253*
X00166Y02253*
X00166Y02253*
X00166Y02253*
X00165Y02253*
X00165Y02253*
X00165Y02253*
X00165Y02253*
X00164*
X00164Y02253*
X00164Y02253*
X00164Y02253*
X00163Y02253*
X00163Y02253*
X00163Y02253*
X00163Y02253*
X00162Y02253*
X00162Y02253*
X00162Y02252*
X00162Y02252*
X00161Y02252*
X00161Y02252*
X00161Y02252*
X00161Y02251*
X00161Y02251*
X00161Y02251*
X00161Y02251*
X00161Y0225*
X00161Y0225*
X00161Y0225*
X00161Y0225*
X00161Y02249*
X00161Y02249*
X00161Y02249*
X00161Y02248*
X00161Y02248*
X00161Y02248*
X00161Y02248*
X00161Y02247*
X00161Y02247*
X00161Y02247*
X00162Y02247*
X00162Y02247*
X00162Y02246*
X00162Y02246*
X00163Y02246*
X00163Y02246*
X00163Y02246*
X00163Y02246*
X00164Y02246*
X00164Y02246*
X00164Y02246*
X00164Y02246*
X00165*
X00165Y02246*
X00165Y02246*
X00165Y02246*
X00166Y02246*
X00166Y02246*
X00166Y02246*
X00166Y02246*
X00167Y02246*
X00167Y02246*
X00167Y02247*
X00167Y02247*
X00168Y02247*
X00168Y02247*
X00168Y02247*
X00168Y02248*
X00168Y02248*
X00168Y02248*
X00168Y02248*
X00168Y02249*
X00168Y02249*
X00168Y02249*
X00168Y0225*
X00863Y0109D02*
D01*
X00863Y0109*
X00863Y0109*
X00863Y0109*
X00863Y01091*
X00863Y01091*
X00863Y01091*
X00862Y01091*
X00862Y01092*
X00862Y01092*
X00862Y01092*
X00862Y01092*
X00862Y01092*
X00861Y01093*
X00861Y01093*
X00861Y01093*
X00861Y01093*
X0086Y01093*
X0086Y01093*
X0086Y01093*
X0086Y01093*
X00859Y01093*
X00859Y01093*
X00859*
X00859Y01093*
X00858Y01093*
X00858Y01093*
X00858Y01093*
X00858Y01093*
X00857Y01093*
X00857Y01093*
X00857Y01093*
X00857Y01093*
X00856Y01092*
X00856Y01092*
X00856Y01092*
X00856Y01092*
X00856Y01092*
X00856Y01091*
X00855Y01091*
X00855Y01091*
X00855Y01091*
X00855Y0109*
X00855Y0109*
X00855Y0109*
X00855Y0109*
X00855Y01089*
X00855Y01089*
X00855Y01089*
X00855Y01088*
X00855Y01088*
X00855Y01088*
X00856Y01088*
X00856Y01087*
X00856Y01087*
X00856Y01087*
X00856Y01087*
X00856Y01087*
X00857Y01086*
X00857Y01086*
X00857Y01086*
X00857Y01086*
X00858Y01086*
X00858Y01086*
X00858Y01086*
X00858Y01086*
X00859Y01086*
X00859Y01086*
X00859*
X00859Y01086*
X0086Y01086*
X0086Y01086*
X0086Y01086*
X0086Y01086*
X00861Y01086*
X00861Y01086*
X00861Y01086*
X00861Y01086*
X00862Y01087*
X00862Y01087*
X00862Y01087*
X00862Y01087*
X00862Y01087*
X00862Y01088*
X00863Y01088*
X00863Y01088*
X00863Y01088*
X00863Y01089*
X00863Y01089*
X00863Y01089*
X00863Y0109*
G54D11*
X01865Y00253D02*
Y00576D01*
X03065*
Y00253D02*
Y00576D01*
X01865Y00253D02*
X03065D01*
X00065D02*
Y00576D01*
X01265*
Y00253D02*
Y00576D01*
X00065Y00253D02*
X01265D01*
X01865Y01903D02*
Y02226D01*
X03065*
Y01903D02*
Y02226D01*
X01865Y01903D02*
X03065D01*
X00065D02*
Y02226D01*
X01265*
Y01903D02*
Y02226D01*
X00065Y01903D02*
X01265D01*
X00885Y01007D02*
Y01428D01*
X02219*
Y01007D02*
Y01428D01*
X00885Y01007D02*
X02219D01*
X00885D02*
Y01428D01*
X02219*
Y01007D02*
Y01428D01*
G54D31*
X01484Y00409D02*
D01*
X01484Y0041*
X01484Y00411*
X01483Y00412*
X01483Y00413*
X01483Y00415*
X01482Y00416*
X01482Y00417*
X01481Y00418*
X0148Y00419*
X0148Y0042*
X01479Y00421*
X01478Y00422*
X01477Y00423*
X01476Y00423*
X01475Y00424*
X01474Y00425*
X01473Y00425*
X01472Y00425*
X0147Y00426*
X01469Y00426*
X01468Y00426*
X01467Y00426*
X01465*
X01464Y00426*
X01463Y00426*
X01462Y00426*
X01461Y00425*
X01459Y00425*
X01458Y00425*
X01457Y00424*
X01456Y00423*
X01455Y00423*
X01454Y00422*
X01453Y00421*
X01452Y0042*
X01452Y00419*
X01451Y00418*
X0145Y00417*
X0145Y00416*
X01449Y00415*
X01449Y00413*
X01449Y00412*
X01449Y00411*
X01448Y0041*
X01448Y00409*
X01681D02*
D01*
X01681Y0041*
X0168Y00411*
X0168Y00412*
X0168Y00413*
X0168Y00415*
X01679Y00416*
X01679Y00417*
X01678Y00418*
X01677Y00419*
X01676Y0042*
X01676Y00421*
X01675Y00422*
X01674Y00423*
X01673Y00423*
X01672Y00424*
X01671Y00425*
X0167Y00425*
X01668Y00425*
X01667Y00426*
X01666Y00426*
X01665Y00426*
X01664Y00426*
X01662*
X01661Y00426*
X0166Y00426*
X01659Y00426*
X01657Y00425*
X01656Y00425*
X01655Y00425*
X01654Y00424*
X01653Y00423*
X01652Y00423*
X01651Y00422*
X0165Y00421*
X01649Y0042*
X01649Y00419*
X01648Y00418*
X01647Y00417*
X01647Y00416*
X01646Y00415*
X01646Y00413*
X01646Y00412*
X01645Y00411*
X01645Y0041*
X01645Y00409*
Y0207D02*
D01*
X01645Y02069*
X01645Y02068*
X01646Y02067*
X01646Y02066*
X01646Y02064*
X01647Y02063*
X01647Y02062*
X01648Y02061*
X01649Y0206*
X01649Y02059*
X0165Y02058*
X01651Y02057*
X01652Y02056*
X01653Y02056*
X01654Y02055*
X01655Y02054*
X01656Y02054*
X01657Y02054*
X01659Y02053*
X0166Y02053*
X01661Y02053*
X01662Y02053*
X01664*
X01665Y02053*
X01666Y02053*
X01667Y02053*
X01668Y02054*
X0167Y02054*
X01671Y02054*
X01672Y02055*
X01673Y02056*
X01674Y02056*
X01675Y02057*
X01676Y02058*
X01677Y02059*
X01677Y0206*
X01678Y02061*
X01679Y02062*
X01679Y02063*
X0168Y02064*
X0168Y02066*
X0168Y02067*
X0168Y02068*
X01681Y02069*
X01681Y0207*
X01448D02*
D01*
X01448Y02069*
X01449Y02068*
X01449Y02067*
X01449Y02066*
X01449Y02064*
X0145Y02063*
X0145Y02062*
X01451Y02061*
X01452Y0206*
X01453Y02059*
X01453Y02058*
X01454Y02057*
X01455Y02056*
X01456Y02056*
X01457Y02055*
X01458Y02054*
X01459Y02054*
X01461Y02054*
X01462Y02053*
X01463Y02053*
X01464Y02053*
X01465Y02053*
X01467*
X01468Y02053*
X01469Y02053*
X0147Y02053*
X01472Y02054*
X01473Y02054*
X01474Y02054*
X01475Y02055*
X01476Y02056*
X01477Y02056*
X01478Y02057*
X01479Y02058*
X0148Y02059*
X0148Y0206*
X01481Y02061*
X01482Y02062*
X01482Y02063*
X01483Y02064*
X01483Y02066*
X01483Y02067*
X01484Y02068*
X01484Y02069*
X01484Y0207*
X0144Y00267D02*
X01448Y00409D01*
X01484D02*
X01492Y00267D01*
X01681Y00409D02*
X01689Y00267D01*
X01637D02*
X01645Y00409D01*
X01368Y00267D02*
X01761D01*
X01344Y00331D02*
Y00364D01*
X01368Y00361*
X01344Y00331D02*
X01368Y00334D01*
Y00267D02*
Y00334D01*
Y00562D02*
X01761D01*
X01368Y00361D02*
Y00562D01*
X01785Y00489D02*
Y00527D01*
X01761Y00525D02*
X01785Y00527D01*
X01761Y00491D02*
X01785Y00489D01*
X01761Y00525D02*
Y00562D01*
Y00267D02*
Y00491D01*
X01681Y0207D02*
X01689Y02212D01*
X01637D02*
X01645Y0207D01*
X0144Y02212D02*
X01448Y0207D01*
X01484D02*
X01492Y02212D01*
X01368D02*
X01761D01*
X01785Y02115D02*
Y02148D01*
X01761Y02118D02*
X01785Y02115D01*
X01761Y02145D02*
X01785Y02148D01*
X01761Y02145D02*
Y02212D01*
X01368Y01917D02*
X01761D01*
Y02118*
X01344Y01952D02*
Y0199D01*
Y01952D02*
X01368Y01954D01*
X01344Y0199D02*
X01368Y01988D01*
Y01917D02*
Y01954D01*
Y01988D02*
Y02212D01*
M02*